<svg width="1920" height="678" viewBox="0 0 1920 678" fill="none" xmlns="http://www.w3.org/2000/svg">
<g clip-path="url(#clip0_160_141)" filter="url(#filter0_f_160_141)">
<path d="M421.623 352.876C379.32 352.876 344.887 387.259 344.887 429.5C344.887 450.129 352.757 469.776 367.514 483.529C382.271 498.265 400.963 506.124 421.623 506.124C442.283 506.124 461.959 498.265 475.732 483.529C506.23 453.076 506.23 404.941 475.732 374.488C460.975 359.753 441.299 351.894 421.623 351.894V352.876ZM421.623 513C398.996 513 378.336 504.159 362.595 488.441C346.854 472.724 338 452.094 338 429.5C338 383.329 375.384 346 421.623 346C443.267 346 464.91 354.841 480.651 370.559C513.116 402.976 513.116 456.024 480.651 488.441C464.91 504.159 444.25 513 421.623 513ZM398.012 495.318L395.06 492.371L392.109 476.653C392.109 474.688 391.125 473.706 390.141 471.741L381.287 459.953C380.303 458.971 379.32 457.006 379.32 456.024L376.368 445.218C375.384 443.253 374.401 442.271 370.465 441.288L368.498 440.306C366.53 440.306 365.546 439.324 364.563 438.341L358.66 433.429C357.676 432.447 356.692 431.465 355.708 430.482C353.741 426.553 348.822 424.588 343.903 424.588L342.919 418.694C349.806 417.712 357.676 420.659 360.627 427.535C360.627 428.518 361.611 428.518 361.611 429.5L367.514 434.412C367.514 434.412 368.498 435.394 369.482 435.394H371.449C375.384 436.376 380.303 437.359 382.271 443.253L385.222 454.059C385.222 455.041 386.206 455.041 386.206 456.024L395.06 467.812C397.028 469.776 398.012 472.724 398.012 475.671L398.996 480.582C399.979 479.6 399.979 478.618 400.963 477.635L403.915 474.688L406.866 465.847C407.85 461.918 409.817 458.971 412.769 457.006L419.655 452.094L415.72 447.182C415.72 447.182 414.736 446.2 414.736 445.218L410.801 439.324C409.817 437.359 406.866 436.376 404.898 436.376C403.915 436.376 401.947 436.376 400.963 435.394L392.109 430.482C391.125 429.5 390.141 429.5 389.158 430.482L384.239 432.447C378.336 435.394 369.482 433.429 365.546 427.535L361.611 420.659C358.66 415.747 358.66 409.853 361.611 404.941C364.563 400.029 370.465 397.082 376.368 398.065L383.255 399.047H384.239C387.19 394.135 393.093 391.188 398.996 391.188H401.947H402.931L405.882 388.241C406.866 387.259 406.866 385.294 405.882 384.312L399.979 376.453C398.012 374.488 396.044 372.524 394.077 370.559C393.093 369.576 392.109 369.576 391.125 368.594L381.287 361.718L385.222 356.806L395.06 363.682C396.044 364.665 397.028 364.665 397.028 365.647C399.979 367.612 402.931 370.559 404.898 373.506L410.801 381.365C412.769 385.294 412.769 389.224 410.801 393.153L407.85 396.1C405.882 398.065 403.915 399.047 401.947 399.047H398.996C395.06 398.065 392.109 400.029 390.141 403.959C388.174 405.924 386.206 407.888 383.255 406.906L376.368 405.924C372.433 405.924 369.482 406.906 367.514 409.853C365.546 412.8 365.546 415.747 367.514 418.694L371.449 425.571C373.417 428.518 378.336 430.482 381.287 428.518L386.206 426.553C389.158 424.588 393.093 425.571 395.06 426.553L403.915 431.465C408.834 431.465 412.769 433.429 415.72 437.359L419.655 443.253L420.639 444.235L426.542 451.112C427.526 452.094 427.526 453.076 427.526 454.059C427.526 455.041 426.542 456.024 425.558 457.006L417.688 462.9C415.72 464.865 413.753 466.829 413.753 468.794L410.801 477.635C410.801 478.618 409.817 479.6 409.817 479.6L406.866 482.547C404.898 484.512 403.915 487.459 403.915 490.406C403.915 492.371 402.931 494.335 400.963 495.318L398.996 496.3L398.012 495.318ZM463.926 465.847C461.959 465.847 459.007 463.882 459.007 461.918V458.971C459.007 455.041 457.04 452.094 453.105 450.129C451.137 449.147 450.153 447.182 450.153 445.218V442.271C450.153 440.306 451.137 438.341 452.121 436.376L465.894 423.606C469.829 420.659 470.813 414.765 469.829 409.853C467.862 404.941 463.926 401.012 459.007 401.012H458.024C456.056 401.012 454.088 400.029 453.105 398.065C452.121 396.1 451.137 394.135 452.121 392.171L455.072 387.259C459.007 381.365 462.943 375.471 467.862 369.576L469.829 366.629L474.748 370.559L472.781 373.506C467.862 379.4 463.926 384.312 459.991 390.206L458.024 394.135C458.024 394.135 458.024 394.135 459.007 394.135H459.991C467.862 395.118 473.764 400.029 475.732 407.888C477.7 414.765 475.732 422.624 469.829 427.535L456.056 440.306V441.288V444.235C460.975 447.182 463.926 452.094 463.926 457.988V459.953H470.813C472.781 459.953 474.748 458.971 475.732 457.006L476.716 456.024C479.667 450.129 485.57 445.218 492.457 445.218H495.408L496.392 451.112H492.457C487.538 451.112 483.602 454.059 481.635 458.971L480.651 459.953C478.683 463.882 474.748 466.829 469.829 466.829H461.959L463.926 465.847Z" fill="#64C7F3"/>
<path d="M1815.06 567.376C1794.29 567.376 1777.38 584.259 1777.38 605C1777.38 615.129 1781.25 624.776 1788.49 631.529C1795.74 638.765 1804.92 642.624 1815.06 642.624C1825.2 642.624 1834.87 638.765 1841.63 631.529C1856.6 616.576 1856.6 592.941 1841.63 577.988C1834.38 570.753 1824.72 566.894 1815.06 566.894V567.376ZM1815.06 646C1803.95 646 1793.81 641.659 1786.08 633.941C1778.35 626.224 1774 616.094 1774 605C1774 582.329 1792.36 564 1815.06 564C1825.69 564 1836.32 568.341 1844.04 576.059C1859.99 591.976 1859.99 618.024 1844.04 633.941C1836.32 641.659 1826.17 646 1815.06 646ZM1803.47 637.318L1802.02 635.871L1800.57 628.153C1800.57 627.188 1800.09 626.706 1799.6 625.741L1795.25 619.953C1794.77 619.471 1794.29 618.506 1794.29 618.024L1792.84 612.718C1792.36 611.753 1791.87 611.271 1789.94 610.788L1788.97 610.306C1788.01 610.306 1787.53 609.824 1787.04 609.341L1784.14 606.929C1783.66 606.447 1783.18 605.965 1782.7 605.482C1781.73 603.553 1779.31 602.588 1776.9 602.588L1776.42 599.694C1779.8 599.212 1783.66 600.659 1785.11 604.035C1785.11 604.518 1785.59 604.518 1785.59 605L1788.49 607.412C1788.49 607.412 1788.97 607.894 1789.46 607.894H1790.42C1792.36 608.376 1794.77 608.859 1795.74 611.753L1797.19 617.059C1797.19 617.541 1797.67 617.541 1797.67 618.024L1802.02 623.812C1802.98 624.776 1803.47 626.224 1803.47 627.671L1803.95 630.082C1804.43 629.6 1804.43 629.118 1804.92 628.635L1806.37 627.188L1807.81 622.847C1808.3 620.918 1809.26 619.471 1810.71 618.506L1814.09 616.094L1812.16 613.682C1812.16 613.682 1811.68 613.2 1811.68 612.718L1809.75 609.824C1809.26 608.859 1807.81 608.376 1806.85 608.376C1806.37 608.376 1805.4 608.376 1804.92 607.894L1800.57 605.482C1800.09 605 1799.6 605 1799.12 605.482L1796.7 606.447C1793.81 607.894 1789.46 606.929 1787.53 604.035L1785.59 600.659C1784.14 598.247 1784.14 595.353 1785.59 592.941C1787.04 590.529 1789.94 589.082 1792.84 589.565L1796.22 590.047H1796.7C1798.15 587.635 1801.05 586.188 1803.95 586.188H1805.4H1805.88L1807.33 584.741C1807.81 584.259 1807.81 583.294 1807.33 582.812L1804.43 578.953C1803.47 577.988 1802.5 577.024 1801.53 576.059C1801.05 575.576 1800.57 575.576 1800.09 575.094L1795.25 571.718L1797.19 569.306L1802.02 572.682C1802.5 573.165 1802.98 573.165 1802.98 573.647C1804.43 574.612 1805.88 576.059 1806.85 577.506L1809.75 581.365C1810.71 583.294 1810.71 585.224 1809.75 587.153L1808.3 588.6C1807.33 589.565 1806.37 590.047 1805.4 590.047H1803.95C1802.02 589.565 1800.57 590.529 1799.6 592.459C1798.64 593.424 1797.67 594.388 1796.22 593.906L1792.84 593.424C1790.91 593.424 1789.46 593.906 1788.49 595.353C1787.53 596.8 1787.53 598.247 1788.49 599.694L1790.42 603.071C1791.39 604.518 1793.81 605.482 1795.25 604.518L1797.67 603.553C1799.12 602.588 1801.05 603.071 1802.02 603.553L1806.37 605.965C1808.78 605.965 1810.71 606.929 1812.16 608.859L1814.09 611.753L1814.58 612.235L1817.48 615.612C1817.96 616.094 1817.96 616.576 1817.96 617.059C1817.96 617.541 1817.48 618.024 1816.99 618.506L1813.13 621.4C1812.16 622.365 1811.2 623.329 1811.2 624.294L1809.75 628.635C1809.75 629.118 1809.26 629.6 1809.26 629.6L1807.81 631.047C1806.85 632.012 1806.37 633.459 1806.37 634.906C1806.37 635.871 1805.88 636.835 1804.92 637.318L1803.95 637.8L1803.47 637.318ZM1835.83 622.847C1834.87 622.847 1833.42 621.882 1833.42 620.918V619.471C1833.42 617.541 1832.45 616.094 1830.52 615.129C1829.55 614.647 1829.07 613.682 1829.07 612.718V611.271C1829.07 610.306 1829.55 609.341 1830.04 608.376L1836.8 602.106C1838.73 600.659 1839.21 597.765 1838.73 595.353C1837.76 592.941 1835.83 591.012 1833.42 591.012H1832.93C1831.97 591.012 1831 590.529 1830.52 589.565C1830.04 588.6 1829.55 587.635 1830.04 586.671L1831.48 584.259C1833.42 581.365 1835.35 578.471 1837.76 575.576L1838.73 574.129L1841.15 576.059L1840.18 577.506C1837.76 580.4 1835.83 582.812 1833.9 585.706L1832.93 587.635C1832.93 587.635 1832.93 587.635 1833.42 587.635H1833.9C1837.76 588.118 1840.66 590.529 1841.63 594.388C1842.59 597.765 1841.63 601.624 1838.73 604.035L1831.97 610.306V610.788V612.235C1834.38 613.682 1835.83 616.094 1835.83 618.988V619.953H1839.21C1840.18 619.953 1841.15 619.471 1841.63 618.506L1842.11 618.024C1843.56 615.129 1846.46 612.718 1849.84 612.718H1851.29L1851.77 615.612H1849.84C1847.43 615.612 1845.49 617.059 1844.53 619.471L1844.04 619.953C1843.08 621.882 1841.15 623.329 1838.73 623.329H1834.87L1835.83 622.847Z" fill="#64C7F3"/>
<path d="M1088.4 371.524C1085.65 370.268 1083.39 370.348 1080.72 371.347C1078.04 372.347 1076.29 373.765 1075.03 376.52L1066.65 394.888L1069.26 379.437C1069.6 376.262 1069.52 374.007 1067.18 371.832C1065.76 370.076 1064.85 369.657 1063.01 368.819C1057.5 366.306 1051.73 369.222 1049.64 373.815C1049.22 374.733 1049.22 374.733 1046.19 391.103L1045.77 392.022L1045.61 387.51C1045.03 383.917 1043.11 380.824 1040.36 379.567C1035.76 377.473 1030.41 379.471 1028.32 384.063C1027.48 385.9 1027.06 386.819 1027.14 389.074L1028.71 407.539C1028.95 414.306 1028.27 420.655 1025.34 427.084C1024.92 428.002 1024.09 429.839 1023.67 430.757C1023.25 431.676 1021.23 438.524 1022.31 443.454C1022.39 445.71 1023.39 448.384 1024.39 451.059C1026.89 457.745 1032.98 463.851 1039.41 466.783L1044.92 469.297C1052.27 472.647 1060.87 473.243 1068.9 470.246L1109.85 453.422C1113.87 451.923 1115.12 449.168 1115.46 445.994C1115.8 442.819 1113.88 439.726 1110.21 438.051C1105.61 435.956 1100.18 435.699 1094.84 437.697L1082.38 443.112L1085.73 435.764C1086.15 434.846 1088.74 431.591 1095.27 424.582L1112.17 404.553C1114.35 402.216 1114.68 399.042 1114.1 395.449C1113.52 391.856 1111.19 389.681 1108.43 388.425C1103.84 386.33 1099.83 387.829 1096.31 390.665L1083.76 406.021L1092.98 385.816C1095.49 380.305 1092.58 374.537 1087.98 372.443L1088.4 371.524ZM1086.73 375.198C1089.48 376.454 1091.4 379.548 1089.72 383.222L1071.71 422.714C1071.29 423.633 1071.79 424.97 1072.71 425.389C1073.63 425.808 1073.63 425.808 1074.97 425.308L1101.41 394.097C1103.58 391.76 1105.84 391.68 1107.67 392.517C1111.35 394.193 1111.51 398.704 1109.33 401.041C1081.64 435.007 1082.9 432.252 1082.48 433.17L1078.71 441.436C1077.45 444.191 1078.45 446.866 1081.21 448.123C1082.12 448.541 1083.96 449.379 1084.8 447.542L1097.25 442.128C1101.26 440.629 1105.78 440.468 1109.45 442.143C1112.2 443.4 1113.28 448.33 1109.27 449.829L1068.32 466.653C1061.63 469.15 1053.94 468.974 1047.52 466.042L1042 463.529C1036.49 461.015 1031.82 456.665 1029.32 449.979C1028.82 448.642 1027.82 445.967 1027.74 443.711C1027.16 440.118 1028.76 434.189 1029.18 433.27C1029.6 432.352 1030.02 431.434 1030.43 430.515C1033.37 424.086 1034.88 415.901 1033.72 408.715L1032.16 390.25C1032.57 389.332 1032.07 387.995 1032.07 387.995C1033.33 385.239 1036.01 384.24 1038.76 385.497C1040.6 386.335 1041.1 387.672 1041.6 389.009L1044.32 414.66C1043.9 415.578 1044.82 415.997 1044.82 415.997C1045.74 416.416 1047.08 415.916 1047.5 414.998C1054.15 373.653 1053.81 376.827 1054.23 375.909C1055.48 373.154 1059.5 371.655 1062.25 372.912C1063.17 373.33 1064.09 373.749 1064.59 375.087C1065.09 376.424 1065.59 377.761 1066.09 379.098L1059.69 415.013C1059.27 415.932 1060.19 416.35 1061.11 416.769C1062.03 417.188 1063.37 416.689 1063.79 415.77L1080.96 378.115C1081.8 376.278 1083.13 375.778 1084.47 375.279C1085.81 374.779 1088.06 374.698 1088.98 375.117L1086.73 375.198Z" fill="#64C7F3"/>
<path d="M526.695 -16.8076C524.142 -15.1785 522.983 -13.2414 522.368 -10.4535C521.752 -7.66559 521.987 -5.42071 523.616 -2.86797L534.477 14.1503L522.928 3.55879C520.448 1.5491 518.511 0.390317 515.415 1.16855C513.17 1.40373 512.319 1.94678 510.617 3.03287C505.512 6.29116 504.823 12.7179 507.539 16.9725C508.082 17.8234 508.082 17.8234 520.174 29.2659L520.717 30.1168L516.843 27.7992C513.512 26.3326 509.873 26.2599 507.321 27.889C503.066 30.6043 501.834 36.1801 504.55 40.4347C505.636 42.1365 506.179 42.9874 508.116 44.1462L524.463 52.8734C530.274 56.3498 535.234 60.3691 539.035 66.3255C539.578 67.1765 540.665 68.8783 541.208 69.7292C541.751 70.5801 546.403 75.9935 551.128 77.768C553.065 78.9268 555.853 79.5425 558.641 80.1582C565.61 81.6976 574.047 79.9059 580.003 76.1046L585.109 72.8463C591.916 68.5019 597.094 61.6048 598.942 53.241L607.091 9.72031C608.015 5.53842 606.386 2.98567 603.906 0.975976C601.426 -1.03372 597.787 -1.10641 594.383 1.06578C590.129 3.78103 586.96 8.1981 585.729 13.774L583.501 27.1705L579.157 20.3632C578.614 19.5123 577.292 15.5656 574.958 6.27821L567.338 -18.796C566.56 -21.8918 564.079 -23.9015 560.749 -25.3681C557.418 -26.8348 554.322 -26.0565 551.769 -24.4274C547.514 -21.7122 546.591 -17.5303 547.061 -13.0405L553.125 5.8421L541.177 -12.878C537.919 -17.9835 531.492 -18.6719 527.238 -15.9567L526.695 -16.8076ZM528.867 -13.4039C531.42 -15.0331 535.059 -14.9604 537.231 -11.5567L560.582 25.0326C561.125 25.8835 562.519 26.1914 563.37 25.6483C564.221 25.1053 564.221 25.1053 564.529 23.7113L552.71 -15.4479C551.932 -18.5437 553.09 -20.4807 554.792 -21.5668C558.196 -23.739 562.07 -21.4214 562.848 -18.3256C576.296 23.3863 574.667 20.8336 575.21 21.6845L580.097 29.3427C581.726 31.8955 584.514 32.5112 587.067 30.8821C587.918 30.339 589.62 29.2529 588.534 27.5511L590.762 14.1545C591.685 9.97261 594.003 6.09859 597.406 3.9264C599.959 2.29725 604.684 4.07177 603.76 8.25365L595.611 51.7744C594.071 58.7442 589.744 65.0983 583.788 68.8996L578.682 72.1579C573.577 75.4162 567.385 76.9726 560.415 75.4333C559.021 75.1254 556.233 74.5097 554.296 73.3509C550.965 71.8843 546.856 67.3218 546.313 66.4709C545.77 65.62 545.227 64.7691 544.684 63.9182C540.883 57.9618 534.836 52.2406 528.174 49.3073L511.827 40.5801C511.284 39.7291 509.89 39.4213 509.89 39.4213C508.261 36.8685 508.877 34.0806 511.43 32.4515C513.132 31.3654 514.526 31.6732 515.919 31.9811L538.928 43.6416C539.471 44.4925 540.322 43.9495 540.322 43.9495C541.173 43.4064 541.481 42.0125 540.938 41.1615C509.856 13.0985 512.336 15.1082 511.793 14.2573C510.164 11.7045 511.088 7.52263 513.64 5.89348C514.491 5.35043 515.342 4.80739 516.736 5.11525C518.13 5.42312 519.524 5.73099 520.918 6.03885L547.583 30.9334C548.126 31.7843 548.977 31.2413 549.828 30.6983C550.679 30.1552 550.987 28.7612 550.444 27.9103L528.179 -6.97717C527.092 -8.679 527.4 -10.073 527.708 -11.4669C528.016 -12.8609 529.175 -14.7979 530.026 -15.341L528.867 -13.4039Z" fill="#64C7F3"/>
<path fill-rule="evenodd" clip-rule="evenodd" d="M1798.65 232.187C1806.88 235.92 1811.23 240.928 1814.43 248.455C1817.63 255.982 1818.09 262.265 1814.66 269.822L1771.59 356.59C1774.72 354.509 1782.61 351.087 1789.13 354.046C1797.29 357.744 1805.38 377.803 1804.77 379.162C1804.27 380.25 1803.24 386.149 1802.79 388.963C1807.37 390.031 1817.91 394.002 1823.39 401.345C1830.24 410.525 1826.61 426.76 1824.15 432.196C1821.68 437.633 1807.2 466.394 1800.53 476.02C1799.39 478.539 1788.65 494.927 1775.85 501.27C1770.82 505.064 1763.05 507.613 1755.27 510.162C1735.84 516.535 1710.47 514.137 1691.26 505.426L1674.8 497.96C1652.85 488.004 1634.33 470.492 1624.72 447.911L1578.97 329.97C1574.17 318.68 1577.6 311.123 1583.77 304.81C1589.94 298.497 1600.45 297.192 1611.43 302.17C1625.15 308.392 1636.58 319.652 1642.99 334.706L1656.25 371.096L1665.39 350.944C1666.54 348.425 1668.36 337.104 1670.41 310.7L1679.77 239.013C1680.46 230.212 1686.63 223.899 1695.54 218.831C1704.46 213.763 1713.83 214.977 1722.06 218.71C1735.78 224.932 1740.58 236.222 1741.5 248.787L1733.51 302.871L1758.65 247.452C1765.5 232.338 1783.79 228.484 1797.51 234.706L1798.65 232.187ZM1794.08 242.263C1785.85 238.53 1775.33 239.835 1770.76 249.911L1721.63 358.229C1720.49 360.748 1716.61 362.023 1713.86 360.778C1711.12 359.534 1711.12 359.534 1709.52 355.771L1723.9 243.84C1724.58 235.038 1720.23 230.031 1714.75 227.542C1703.77 222.564 1693.72 230.151 1693.03 238.953C1679.68 328.569 1678.27 346.722 1677.91 351.26C1677.83 352.292 1677.81 352.62 1677.71 352.924C1677.66 353.066 1677.6 353.202 1677.51 353.403L1667.23 376.074C1663.8 383.631 1656.03 386.18 1647.8 382.447C1645.05 381.202 1639.57 378.714 1641.85 373.676L1628.58 337.285C1623.78 325.995 1615.09 315.979 1604.12 311.002C1595.88 307.269 1583.08 313.611 1587.89 324.902L1633.64 442.843C1641.64 461.66 1657.42 477.928 1676.62 486.639L1693.09 494.106C1709.55 501.572 1728.3 504.001 1747.73 497.628C1751.61 496.353 1759.39 493.804 1764.41 490.01C1773.33 484.942 1784.82 471.931 1785.96 469.412C1786.54 468.153 1789.28 463.899 1792.03 459.646C1794.78 455.392 1797.53 451.139 1798.1 449.879C1793.83 453.951 1783.21 460.494 1774.89 454.097C1765.3 446.729 1755.64 436.831 1769.44 421.468C1761.63 428.739 1749.43 437.634 1744.12 435.226C1736.28 431.669 1720.3 419.509 1725.24 408.637C1729.23 399.839 1737.88 390.317 1748.18 378.979C1750.61 376.306 1753.13 373.532 1755.7 370.643C1752.96 369.399 1751.36 365.635 1752.5 363.116L1799.34 259.836C1801.63 254.798 1800.03 251.035 1798.43 247.271C1796.82 243.508 1792.48 238.5 1789.74 237.255L1794.08 242.263ZM1763.59 374.223C1764.1 373.809 1764.78 373.171 1765.57 372.414C1769.86 368.351 1777.75 360.868 1783.58 366.277C1789.16 371.451 1799.73 384.405 1786.8 396.897C1775.63 409.043 1750.76 430.363 1740.62 418.475C1730.42 406.509 1747.37 390.168 1757.72 380.193C1760.22 377.78 1762.34 375.739 1763.59 374.223ZM1811.81 405.204C1808.37 401.216 1800.72 397.137 1793.89 403.149C1782.79 412.547 1763.64 433.683 1775.79 443.039C1785.82 450.754 1791.62 446.87 1797.02 443.26C1798.16 442.492 1799.29 441.737 1800.44 441.108C1822.22 416.217 1817.27 410.994 1812.97 406.471C1812.57 406.048 1812.18 405.63 1811.81 405.204Z" fill="#EF89AD"/>
<path fill-rule="evenodd" clip-rule="evenodd" d="M1282.14 45.1289C1286.11 45.7295 1288.58 47.3461 1290.86 50.1792C1293.14 53.0122 1294.1 55.6451 1293.55 59.2941L1285.63 101.641C1286.71 100.372 1289.68 97.9522 1292.82 98.4281C1296.76 99.023 1302.66 106.626 1302.56 107.282C1302.48 107.807 1302.75 110.457 1302.9 111.716C1304.99 111.617 1309.98 112.039 1313.22 114.519C1317.26 117.617 1317.67 125.004 1317.28 127.629C1316.88 130.254 1314.17 144.315 1312.48 149.242C1312.3 150.459 1309.68 158.773 1304.97 163.038C1303.28 165.27 1300.26 167.303 1297.25 169.335C1289.7 174.416 1278.55 176.464 1269.28 175.063L1261.33 173.862C1250.73 172.26 1240.69 167.01 1233.84 158.511L1199.98 113.583C1196.55 109.333 1197.11 105.684 1198.98 102.235C1200.86 98.7862 1205.2 96.954 1210.5 97.7547C1217.12 98.7555 1223.38 102.189 1227.94 107.855L1238.03 121.82L1239.5 112.089C1239.68 110.873 1239.09 105.807 1236.77 94.2598L1232.09 62.45C1231.32 58.6008 1233.2 55.1519 1236.4 51.9032C1239.6 48.6545 1243.76 48.0386 1247.73 48.6391C1254.36 49.64 1257.78 53.8895 1259.69 59.1553L1262.82 83.2667L1266.87 56.5071C1267.97 49.209 1275.33 45.3445 1281.95 46.3453L1282.14 45.1289ZM1281.4 49.9943C1277.43 49.3938 1273.09 51.226 1272.35 56.0914L1264.45 108.394C1264.26 109.611 1262.76 110.627 1261.43 110.427C1260.11 110.227 1260.11 110.227 1258.97 108.81L1251.56 59.1706C1250.79 55.3214 1248.32 53.7047 1245.67 53.3044C1240.37 52.5037 1236.99 56.9687 1237.76 60.818C1242.9 100.784 1244.5 108.723 1244.9 110.708C1244.99 111.159 1245.01 111.303 1245.01 111.445C1245.01 111.511 1245 111.577 1244.98 111.674L1243.33 122.621C1242.78 126.27 1239.76 128.302 1235.79 127.702C1234.46 127.502 1231.81 127.101 1232.18 124.668L1222.09 110.703C1218.67 106.454 1213.74 103.221 1208.44 102.42C1204.46 101.819 1199.75 106.084 1203.18 110.334L1237.04 155.262C1242.75 162.345 1251.47 167.395 1260.74 168.796L1268.69 169.997C1276.64 171.198 1284.96 169.966 1292.5 164.885C1294.01 163.869 1297.03 161.837 1298.72 159.604C1301.92 156.356 1305.26 149.396 1305.44 148.18C1305.54 147.571 1306.2 145.418 1306.86 143.265C1307.52 141.112 1308.18 138.959 1308.27 138.351C1306.94 140.61 1303.19 144.697 1298.85 142.968C1293.85 140.976 1288.52 137.91 1292.57 129.665C1290.11 133.722 1285.96 139.007 1283.4 138.619C1279.61 138.047 1271.3 134.779 1272.1 129.529C1272.74 125.28 1275.29 120.158 1278.32 114.058C1279.04 112.62 1279.78 111.128 1280.53 109.58C1279.21 109.38 1278.06 107.963 1278.25 106.747L1285.78 56.8767C1286.15 54.4441 1285.01 53.0275 1283.87 51.611C1282.73 50.1945 1280.26 48.5778 1278.94 48.3777L1281.4 49.9943ZM1284.34 110.156C1284.51 109.917 1284.72 109.562 1284.97 109.142C1286.31 106.884 1288.78 102.726 1291.93 104.334C1294.95 105.872 1301.04 110.135 1297.02 117.048C1293.71 123.598 1285.65 135.734 1279.87 131.875C1274.05 127.99 1279.33 118.944 1282.55 113.422C1283.33 112.086 1283.99 110.956 1284.34 110.156ZM1308.73 117.573C1306.77 116.282 1303 115.464 1300.81 118.864C1297.2 124.23 1291.56 135.594 1297.9 138.126C1303.12 140.213 1305.13 137.848 1307.01 135.649C1307.4 135.182 1307.8 134.722 1308.21 134.314C1314.52 121.024 1311.76 119.39 1309.38 117.974C1309.16 117.841 1308.94 117.711 1308.73 117.573Z" fill="#EF89AD"/>
<path fill-rule="evenodd" clip-rule="evenodd" d="M383.753 98.5146C388.488 97.1043 392.076 97.6133 396.096 99.5713C400.116 101.529 402.558 103.958 403.853 108.305L417.186 159.553C417.731 157.572 419.759 153.332 423.512 152.214C428.203 150.817 438.736 156.192 438.969 156.974C439.155 157.599 440.845 160.403 441.667 161.727C443.942 160.524 449.715 158.383 454.608 159.45C460.724 160.784 465.049 168.784 465.98 171.911C466.911 175.038 471.247 192.098 471.946 198.461C472.378 199.911 473.821 210.525 470.812 217.731C470.097 221.1 467.803 224.938 465.51 228.777C459.776 238.373 448.444 246.481 437.396 249.772L427.926 252.592C415.299 256.353 401.377 255.767 389.318 249.892L328.156 217.623C322.126 214.686 320.831 210.339 321.114 205.521C321.398 200.704 325.27 196.395 331.583 194.515C339.475 192.164 348.23 192.712 356.27 196.628L374.791 206.889L371.338 195.296C370.906 193.847 367.602 188.52 358.982 176.888L337.143 143.951C334.27 140.073 334.554 135.256 336.415 129.968C338.277 124.681 342.581 121.821 347.316 120.411C355.207 118.061 361.237 120.998 366.12 125.854L382.213 151.037L372.717 119.156C370.128 110.461 376.293 102.314 384.185 99.9638L383.753 98.5146ZM385.48 104.311C380.745 105.721 376.873 110.03 378.599 115.827L397.159 178.139C397.59 179.588 396.443 181.507 394.865 181.978C393.287 182.448 393.287 182.448 391.277 181.469L357.082 130.124C354.209 126.246 350.621 125.737 347.464 126.678C341.15 128.558 339.72 135.295 342.593 139.172C369.211 180.941 375.137 188.938 376.618 190.937C376.955 191.392 377.062 191.537 377.13 191.697C377.162 191.772 377.185 191.851 377.22 191.966L381.104 205.008C382.399 209.356 380.106 213.194 375.371 214.604C373.792 215.075 370.636 216.015 369.772 213.116L351.251 202.856C345.221 199.919 338.045 198.901 331.731 200.782C326.996 202.192 323.987 209.399 330.017 212.336L391.179 244.605C401.229 249.5 413.573 250.557 424.621 247.266L434.091 244.445C443.561 241.625 452.168 235.906 457.902 226.31C459.048 224.39 461.342 220.552 462.057 217.184C463.919 211.896 463.997 202.407 463.566 200.957C463.35 200.233 462.959 197.492 462.569 194.752C462.178 192.011 461.787 189.27 461.571 188.546C461.269 191.757 459.232 198.265 453.503 198.609C446.905 199.006 439.372 198.383 439.559 187.096C438.942 192.897 437.094 200.943 434.041 201.853C429.53 203.196 418.579 203.904 416.716 197.649C415.209 192.588 415.365 185.557 415.552 177.185C415.596 175.212 415.641 173.163 415.667 171.049C414.089 171.519 412.079 170.54 411.647 169.091L393.951 109.676C393.088 106.778 391.078 105.799 389.068 104.82C387.058 103.841 383.47 103.332 381.891 103.802L385.48 104.311ZM420.207 169.696C420.27 169.342 420.319 168.838 420.377 168.239C420.688 165.027 421.261 159.111 425.608 159.251C429.765 159.385 438.772 160.941 437.912 170.734C437.659 179.75 435.04 197.463 426.593 196.193C418.091 194.914 419.229 182.093 419.924 174.266C420.092 172.372 420.234 170.771 420.207 169.696ZM451.212 165.195C448.365 164.781 443.744 165.842 443.079 170.773C441.87 178.629 441.545 194.216 449.914 193.72C456.815 193.311 457.818 189.627 458.751 186.203C458.949 185.475 459.144 184.758 459.392 184.087C459.456 166.008 455.539 165.629 452.147 165.3C451.829 165.27 451.516 165.239 451.212 165.195Z" fill="#EF89AD"/>
<path d="M923.375 71.04C901.625 71.04 884.225 88.4267 884.225 110.16C884.225 118.853 886.4 127.547 892.925 134.067C895.1 136.24 936.425 181.88 956 205.787L1019.07 134.067C1023.43 127.547 1027.77 118.853 1027.77 110.16C1027.77 88.4267 1010.38 71.04 988.625 71.04C977.75 71.04 969.05 75.3867 960.35 81.9067L956 86.2533L951.65 81.9067C945.125 75.3867 934.25 71.04 923.375 71.04ZM956 221C951.65 221 949.475 218.827 947.3 216.653C936.425 203.613 882.05 144.933 882.05 142.76C873.35 134.067 869 121.027 869 110.16C869 81.9067 892.925 58 923.375 58C936.425 58 947.3 62.3467 956 68.8667C964.7 62.3467 977.75 58 988.625 58C1019.07 58 1043 81.9067 1043 110.16C1043 123.2 1038.65 134.067 1029.95 142.76L964.7 216.653C962.525 218.827 958.175 221 956 221Z" fill="#64C7F3"/>
<path d="M1496.83 117.713C1485 115.07 1473.42 122.428 1470.77 134.27C1469.72 139.007 1469.84 144.007 1472.6 148.353C1473.52 149.801 1490.44 179.691 1498.19 195.095L1541.23 163.684C1544.39 160.66 1547.82 156.452 1548.87 151.715C1551.52 139.874 1544.17 128.286 1532.33 125.643C1526.42 124.321 1521.16 125.632 1515.63 128.127L1512.73 129.967L1510.9 127.07C1508.14 122.725 1502.75 119.035 1496.83 117.713ZM1496.33 203.384C1493.97 202.856 1493.05 201.407 1492.13 199.959C1487.8 191.532 1465.36 152.952 1465.62 151.768C1461.95 145.974 1461.17 138.34 1462.49 132.42C1465.93 117.026 1481.85 106.908 1498.42 110.608C1505.52 112.194 1510.91 115.884 1514.85 120.494C1520.38 117.999 1528 117.216 1533.92 118.538C1550.49 122.238 1560.6 138.171 1557.16 153.565C1555.57 160.67 1551.88 166.062 1546.09 169.742L1501.6 202.073C1500.15 202.993 1497.52 203.649 1496.33 203.384Z" fill="#64C7F3"/>
<path d="M1819.59 39.6771C1819.36 39.6351 1819.36 39.6351 1819.09 39.8221L1737.39 89.7137C1737.11 89.9007 1737.07 90.1297 1737.03 90.3588C1736.99 90.5878 1737.18 90.8589 1737.63 90.943L1760.57 95.1486L1750.45 150.35C1750.37 150.808 1750.56 151.08 1751.02 151.164L1844.15 168.238C1844.61 168.322 1844.88 168.135 1844.96 167.677L1855.08 112.475L1878.02 116.681C1878.25 116.723 1878.52 116.536 1878.8 116.349C1878.84 116.12 1878.88 115.891 1878.69 115.62L1820 39.9903C1819.77 39.9482 1819.82 39.7192 1819.59 39.6771ZM1843.44 172.132L1750.3 155.058C1747.78 154.595 1746.09 152.155 1746.55 149.635L1755.92 98.5566L1736.88 95.066C1735.04 94.7295 1733.42 93.2478 1733.07 91.2892C1732.71 89.3307 1733.55 87.3533 1735.18 86.2313L1816.88 36.3397C1819.01 35.0728 1821.53 35.5354 1823.07 37.4752L1881.76 113.105C1882.89 114.731 1882.97 116.877 1881.94 118.583C1880.92 120.289 1878.87 121.098 1877.04 120.762L1858 117.271L1848.63 168.35C1848.17 170.87 1845.73 172.553 1843.21 172.09L1843.44 172.132ZM1801.29 81.3047C1800.83 81.2206 1800.37 81.1365 1799.91 81.0524C1795.7 80.7535 1791.79 82.6422 1789.47 86.2417C1787.11 90.0703 1786.96 94.7775 1789.08 98.718L1803.51 124.801C1803.69 125.072 1804.15 125.156 1804.42 124.969L1827.16 105.699C1830.55 102.768 1832.07 98.3132 1831.22 93.8958C1830.33 89.7075 1827.35 86.5571 1823.31 85.342C1819.49 84.169 1815.34 84.8283 1812.08 87.0723L1810.46 88.1943L1809.33 86.5676C1807.23 83.8145 1804.27 81.8514 1800.83 81.2206L1801.29 81.3047ZM1803.44 129.05C1802.06 128.798 1800.81 127.858 1800.06 126.774L1785.64 100.691C1782.81 95.4369 1783.03 89.0843 1786.1 83.9655C1789.13 79.0758 1794.58 76.5231 1800.21 76.8453C1804.65 77.1862 1808.98 79.4017 1811.96 82.5521C1815.87 80.6633 1820.71 80.1301 1824.98 81.3873C1830.4 82.8547 1834.55 87.4027 1835.65 93.0494C1836.93 98.9673 1834.88 104.983 1830.14 108.85L1807.4 128.119C1806.28 129.096 1804.82 129.302 1803.44 129.05Z" fill="#FFDB00"/>
<path d="M1250.26 529.434C1250.07 529.484 1250.07 529.484 1249.94 529.719L1206.99 595.7C1206.85 595.935 1206.9 596.12 1206.95 596.305C1207 596.49 1207.24 596.625 1207.61 596.525L1226.11 591.533L1238.15 636.132C1238.24 636.502 1238.48 636.637 1238.85 636.537L1313.98 616.27C1314.35 616.171 1314.49 615.936 1314.39 615.566L1302.36 570.967L1320.86 565.975C1321.05 565.925 1321.18 565.69 1321.32 565.455C1321.27 565.27 1321.22 565.085 1320.98 564.95L1250.68 529.52C1250.49 529.57 1250.44 529.385 1250.26 529.434ZM1314.83 619.416L1239.7 639.683C1237.66 640.232 1235.55 639.016 1235 636.98L1223.87 595.713L1208.51 599.856C1207.03 600.255 1205.3 599.729 1204.34 598.399C1203.39 597.068 1203.31 595.303 1204.12 593.893L1247.07 527.913C1248.2 526.218 1250.24 525.669 1252.07 526.565L1322.37 561.995C1323.78 562.806 1324.6 564.372 1324.44 566.002C1324.29 567.632 1323.06 568.957 1321.58 569.356L1306.22 573.499L1317.35 614.767C1317.9 616.803 1316.68 618.917 1314.65 619.466L1314.83 619.416ZM1251.42 566.841C1251.05 566.941 1250.68 567.041 1250.31 567.141C1247.07 568.41 1244.85 571.194 1244.4 574.689C1244 578.37 1245.56 581.921 1248.53 584.098L1268.46 598.375C1268.69 598.51 1269.06 598.41 1269.2 598.175L1279.25 575.812C1280.72 572.437 1280.28 568.586 1278.08 565.604C1275.94 562.808 1272.61 561.521 1269.18 562.049C1265.94 562.528 1263.09 564.487 1261.47 567.306L1260.66 568.716L1259.25 567.905C1256.71 566.604 1253.82 566.192 1251.05 566.941L1251.42 566.841ZM1269.91 601.556C1268.8 601.856 1267.54 601.6 1266.6 601.06L1246.67 586.782C1242.71 583.88 1240.62 579.083 1241.09 574.193C1241.61 569.487 1244.75 565.663 1249.04 563.91C1252.45 562.591 1256.45 562.703 1259.78 563.99C1262.01 561.206 1265.41 559.097 1269.02 558.519C1273.56 557.691 1278.25 559.603 1281.06 563.41C1284.11 567.352 1284.72 572.549 1282.57 577.098L1272.52 599.462C1272.03 600.587 1271.02 601.257 1269.91 601.556Z" fill="#FFDB00"/>
<path d="M1341.3 317.204C1338.89 316.496 1336.05 315.008 1334.16 312.488C1327.13 305.18 1330.32 294.308 1330.5 293.704L1334.04 281.624C1334.57 279.812 1336.91 278.531 1338.72 279.061C1340.53 279.592 1341.81 281.935 1341.28 283.747L1337.74 295.827C1337.74 295.827 1335.79 302.471 1339.73 306.906C1341.79 308.821 1344.21 309.529 1346.97 309.028C1348.36 308.778 1349.14 308.351 1350.1 307.32L1365.63 296.789C1369.11 293.873 1376.91 289.602 1384.05 294.317C1390.76 298.252 1391.83 305.78 1389.63 311.039L1385.74 324.327C1385.21 326.139 1382.87 327.421 1381.06 326.89C1379.25 326.359 1377.97 324.017 1378.5 322.205L1382.39 308.917C1382.92 307.105 1383.38 303.304 1379.94 301.639C1376.07 299.192 1370.07 303.994 1370.07 303.994L1354.36 315.129C1352.62 316.587 1350.46 317.264 1348.29 317.942C1345.52 318.442 1342.93 318.339 1340.52 317.631L1341.3 317.204ZM1379.83 402.614C1343.02 391.824 1339.37 357.305 1342.52 339.862C1343.05 338.05 1344.79 336.592 1347.38 336.696C1349.19 337.227 1350.65 338.965 1350.54 341.558C1348.28 355.981 1351.18 386.345 1382.56 395.543C1413.93 404.742 1433.19 381.527 1439.85 367.738C1440.39 365.926 1443.33 364.822 1444.96 365.957C1446.77 366.487 1447.88 369.434 1446.74 371.069C1439.55 386.669 1417.24 413.581 1380.43 402.791L1379.83 402.614ZM1425.78 341.969C1423.37 341.261 1421.13 339.95 1419.25 337.43C1412.22 330.122 1415.4 319.25 1415.58 318.646L1419.12 306.566C1419.65 304.754 1422 303.473 1423.81 304.003C1425.62 304.534 1426.9 306.877 1426.36 308.689L1422.82 320.769C1422.82 320.769 1420.88 327.413 1424.82 331.848C1426.27 333.586 1428.69 334.294 1431.28 334.398C1432.66 334.147 1434.83 333.47 1436.39 332.616L1451.15 322.512C1454.44 320.2 1462.43 315.325 1469.56 320.04C1476.27 323.975 1477.34 331.503 1475.15 336.762L1471.25 350.05C1470.72 351.862 1468.38 353.144 1466.57 352.613C1464.76 352.082 1463.48 349.74 1464.01 347.928L1467.9 334.64C1468.44 332.828 1468.89 329.027 1465.45 327.361C1461.58 324.915 1455.59 329.717 1455.59 329.717L1440.65 340.425C1438.13 342.31 1435.19 343.414 1431.82 343.738C1429.83 343.811 1427.84 343.885 1426.03 343.354L1425.78 341.969Z" fill="#FFDB00"/>
<path d="M637.33 251.25C635.835 251.995 633.787 252.567 631.753 252.231C625.084 251.958 621.851 245.473 621.671 245.113L618.078 237.907C617.539 236.826 618.121 235.187 619.242 234.628C620.363 234.069 622.023 234.59 622.562 235.671L626.155 242.877C626.155 242.877 628.131 246.84 632.019 247.15C633.873 247.125 635.368 246.38 636.503 244.914C637.071 244.181 637.265 243.634 637.28 242.728L640.248 230.901C640.665 227.994 642.605 222.528 648.182 221.546C653.205 220.391 657.05 223.422 658.293 226.851L662.245 234.777C662.784 235.858 662.202 237.498 661.081 238.057C659.96 238.616 658.3 238.094 657.761 237.013L653.808 229.087C653.269 228.006 651.818 226.031 649.396 226.789C646.421 227.373 645.602 232.28 645.602 232.28L642.813 244.467C642.605 245.92 641.843 247.2 641.081 248.479C639.946 249.945 638.631 251.051 637.136 251.796L637.33 251.25ZM693.878 273.885C671.083 285.252 654.074 270.791 647.922 261.263C647.383 260.182 647.592 258.729 648.907 257.623C650.028 257.064 651.508 257.225 652.601 258.48C657.854 266.207 672.664 279.065 692.096 269.375C711.528 259.686 710.724 240.293 707.907 230.901C707.368 229.82 708.324 227.994 709.625 227.796C710.746 227.236 712.585 228.119 712.751 229.386C716.106 239.858 717.047 262.332 694.252 273.699L693.878 273.885ZM689.647 225.162C688.152 225.907 686.477 226.292 684.444 225.957C677.775 225.683 674.541 219.198 674.361 218.838L670.768 211.633C670.23 210.552 670.812 208.912 671.933 208.353C673.054 207.794 674.714 208.316 675.253 209.397L678.846 216.602C678.846 216.602 680.822 220.565 684.71 220.876C686.19 221.037 687.685 220.292 689 219.186C689.568 218.453 690.33 217.174 690.718 216.08L693.492 204.8C694.088 202.254 695.849 196.427 701.426 195.446C706.449 194.29 710.293 197.322 711.537 200.75L715.489 208.676C716.028 209.757 715.446 211.397 714.325 211.956C713.204 212.515 711.544 211.993 711.005 210.913L707.052 202.987C706.513 201.906 705.062 199.931 702.64 200.688C699.665 201.272 698.845 206.179 698.845 206.179L696.251 217.82C695.849 219.82 694.893 221.646 693.384 223.298C692.442 224.218 691.501 225.137 690.38 225.696L689.647 225.162Z" fill="#FFDB00"/>
<path d="M104.5 502C93.1818 502 81.8636 507.03 74.3182 514.576C66.7727 522.121 61.7424 533.439 61.7424 544.758C61.7424 556.076 66.7727 567.394 74.3182 574.939C81.8636 582.485 93.1818 587.515 104.5 587.515C115.818 587.515 127.136 582.485 134.682 574.939C142.227 567.394 147.258 556.076 147.258 544.758C147.258 533.439 142.227 522.121 134.682 514.576C127.136 507.03 115.818 502 104.5 502ZM104.5 600.091C89.4091 600.091 75.5758 593.803 65.5152 583.742C55.4545 573.682 49.1667 559.848 49.1667 544.758C49.1667 529.667 55.4545 515.833 65.5152 505.773C75.5758 495.712 89.4091 489.424 104.5 489.424C119.591 489.424 133.424 495.712 143.485 505.773C153.545 515.833 159.833 529.667 159.833 544.758C159.833 559.848 153.545 573.682 143.485 583.742C133.424 593.803 119.591 600.091 104.5 600.091ZM104.5 474.333C100.727 474.333 98.2121 471.818 98.2121 468.045V425.288C98.2121 421.515 100.727 419 104.5 419C108.273 419 110.788 421.515 110.788 425.288V468.045C110.788 471.818 108.273 474.333 104.5 474.333ZM104.5 668C100.727 668 98.2121 665.485 98.2121 661.712V618.955C98.2121 615.182 100.727 612.667 104.5 612.667C108.273 612.667 110.788 615.182 110.788 618.955V661.712C110.788 665.485 108.273 668 104.5 668ZM222.712 549.788H179.955C176.182 549.788 173.667 547.273 173.667 543.5C173.667 539.727 176.182 537.212 179.955 537.212H222.712C226.485 537.212 229 539.727 229 543.5C229 547.273 226.485 549.788 222.712 549.788ZM29.0455 549.788H-13.7121C-17.4848 549.788 -20 547.273 -20 543.5C-20 539.727 -17.4848 537.212 -13.7121 537.212H29.0455C32.8182 537.212 35.3333 539.727 35.3333 543.5C35.3333 547.273 32.8182 549.788 29.0455 549.788ZM187.5 634.045C186.242 634.045 184.985 634.045 183.727 632.788L153.545 602.606C151.03 600.091 151.03 596.318 153.545 595.061C156.061 592.545 159.833 592.545 161.091 595.061L191.273 625.242C193.788 627.758 193.788 631.53 191.273 632.788C190.015 634.045 188.758 634.045 187.5 634.045ZM50.4242 496.97C49.1667 496.97 47.9091 496.97 46.6515 495.712L16.4697 465.53C13.9545 463.015 13.9545 459.242 16.4697 457.985C18.9848 455.47 22.7576 455.47 24.0152 457.985L54.197 488.167C56.7121 490.682 56.7121 494.455 54.197 495.712C52.9394 496.97 51.6818 496.97 50.4242 496.97ZM20.2424 634.045C18.9848 634.045 17.7273 634.045 16.4697 632.788C13.9545 630.273 13.9545 626.5 16.4697 625.242L46.6515 595.061C49.1667 592.545 52.9394 592.545 54.197 595.061C56.7121 597.576 56.7121 601.348 54.197 602.606L24.0152 632.788C22.7576 634.045 21.5 634.045 20.2424 634.045ZM157.318 496.97C156.061 496.97 154.803 496.97 153.545 495.712C151.03 493.197 151.03 489.424 153.545 488.167L183.727 457.985C186.242 455.47 190.015 455.47 191.273 457.985C193.788 460.5 193.788 464.273 191.273 465.53L161.091 495.712C159.833 496.97 158.576 496.97 157.318 496.97Z" fill="#FFDB00"/>
<path d="M-0.208609 291.243L84.7843 267.161L70.1107 186.354L78.9905 183.838C130.451 171.997 165.463 145.632 181.976 131.361C184.153 129.374 185.062 127.746 185.612 124.849C186.162 121.953 184.174 119.775 182.187 117.597C180.199 115.42 176.034 115.229 172.229 116.308C146.667 127.661 85.777 144.914 1.52402 161.935C-29.6401 168.024 -53.0658 196.588 -52.4101 227.921L-49.6821 305.261L-26.8482 298.791L-30.4643 213.48L1.05995 290.883L-0.208609 291.243ZM211.639 231.217L240.816 222.95L198.044 154.216C165.738 185.296 116.984 201.851 104.298 205.445L113.961 258.894L187.537 238.046L172.081 183.499L212.908 230.858L211.639 231.217ZM250.034 231.301L211.978 242.084C209.441 242.803 206.544 242.254 204.557 240.076L194.62 229.188L197.495 239.336C198.573 243.142 196.755 246.398 192.949 247.476L111.762 270.48C109.225 271.199 107.597 270.289 105.969 269.38C104.341 268.471 102.354 266.294 103.263 264.666L92.7122 203.246C91.6339 199.441 94.7207 195.825 97.2578 195.107C97.2578 195.107 159.417 177.494 194.45 141.53C195.359 139.903 197.896 139.184 200.792 139.733C202.42 140.642 205.317 141.192 205.676 142.461L255.13 220.265C255.848 222.802 256.208 224.071 255.658 226.967C254.749 228.595 252.571 230.582 251.303 230.942L250.034 231.301ZM97.2143 49.8571C80.7232 54.5298 71.632 70.8096 76.3046 87.3008C80.9773 103.792 97.2571 112.883 113.748 108.21C130.239 103.538 139.331 87.258 134.658 70.7668C129.985 54.2757 113.705 45.1845 97.2143 49.8571ZM116.624 118.359C95.0584 124.469 72.2666 111.742 66.1562 90.1763C60.0459 68.6109 72.7735 45.8191 94.3389 39.7087C115.904 33.5984 138.696 46.326 144.806 67.8914C150.917 89.4567 138.189 112.249 116.624 118.359ZM-10.7606 65.3767C-29.7889 70.7682 -40.6983 90.304 -35.3068 109.332C-29.9152 128.361 -10.3794 139.27 8.64883 133.878C27.6771 128.487 38.5865 108.951 33.195 89.9228C27.8035 70.8946 8.26766 59.9852 -10.7606 65.3767ZM11.5243 144.027C-12.5782 150.856 -38.6259 136.31 -45.4552 112.208C-52.2844 88.1053 -37.7385 62.0575 -13.6361 55.2283C10.4664 48.399 36.5141 62.9449 43.3434 87.0474C50.1726 111.15 35.6268 137.198 11.5243 144.027ZM91.8249 277.499L-0.779353 303.738C-4.58501 304.816 -7.84098 302.998 -8.91928 299.192L-17.2073 279.614L-16.5306 301.349C-17.0803 304.245 -18.8985 307.501 -21.4356 308.22L-51.8808 316.847C-54.4179 317.566 -56.0459 316.656 -57.6739 315.747C-59.3019 314.838 -60.0207 312.301 -60.7396 309.764L-63.6368 226.991C-63.1931 189.865 -36.6806 157.685 -0.442341 150.158C83.8106 133.138 142.523 117.872 168.085 106.519C175.337 103.093 184.026 104.743 189.629 110.007C193.604 114.362 196.31 119.077 196.839 125.779C197.008 131.213 194.64 137.365 190.285 141.34C172.863 157.24 136.583 183.964 83.8534 196.164L96.7299 270.628C97.8082 274.433 94.7214 278.049 92.1843 278.768L91.8249 277.499Z" fill="#5BB194"/>
<path d="M674.538 602.867L750.002 606.226L759.701 540.467L767.585 540.818C812.544 544.955 848.029 533.723 865.256 527.017C867.556 526.052 868.73 525.036 869.951 522.955C871.172 520.875 870.141 518.694 869.109 516.512C868.078 514.331 864.746 513.115 861.367 512.965C837.572 515.108 783.508 512.702 710.534 504.115C683.597 500.781 656.933 516.675 649.084 540.881L630.611 600.911L650.885 601.814L670.768 535.44L675.664 602.917L674.538 602.867ZM862.635 611.24L888.541 612.394L872.192 548.678C837.643 564.221 793.621 564.397 782.358 563.895L775.908 607.379L841.235 610.288L843.275 564.472L863.762 611.29L862.635 611.24ZM893.793 621.168L860.003 619.664C857.751 619.564 855.545 618.398 854.514 616.217L849.357 605.311L848.977 613.835C848.835 617.032 846.487 619.062 843.108 618.912L771.023 615.703C768.77 615.602 767.692 614.487 766.613 613.371C765.534 612.256 764.502 610.075 765.676 609.059L773.537 559.232C773.679 556.036 777.153 554.055 779.406 554.155C779.406 554.155 834.596 556.612 872.666 538.023C873.84 537.007 876.093 537.108 878.298 538.273C879.377 539.389 881.582 540.555 881.534 541.62L900.883 614.011C900.788 616.142 900.741 617.207 899.52 619.288C898.346 620.303 896.046 621.268 894.919 621.218L893.793 621.168ZM818.224 442.718C803.581 442.066 791.844 452.22 791.227 466.071C790.61 479.922 801.399 491.079 816.042 491.73C830.684 492.382 842.422 482.229 843.038 468.378C843.655 454.526 832.866 443.37 818.224 442.718ZM815.662 500.254C796.515 499.402 781.41 483.783 782.216 465.67C783.023 447.557 799.455 433.342 818.603 434.194C837.751 435.047 852.855 450.665 852.049 468.779C851.243 486.892 834.81 501.107 815.662 500.254ZM726.386 426.886C709.491 426.134 695.406 438.318 694.695 454.3C693.983 470.283 706.93 483.67 723.825 484.422C740.72 485.175 754.805 472.99 755.517 457.008C756.228 441.026 743.281 427.638 726.386 426.886ZM723.445 492.946C702.045 491.994 684.783 474.144 685.684 453.899C686.585 433.655 705.365 417.41 726.766 418.362C748.166 419.315 765.428 437.165 764.527 457.409C763.626 477.653 744.846 493.899 723.445 492.946ZM752.954 615.966L670.732 612.306C667.353 612.155 665.195 609.924 665.338 606.728L663.844 589.579L658.58 606.427C657.359 608.508 655.011 610.538 652.758 610.438L625.726 609.235C623.474 609.134 622.395 608.019 621.316 606.903C620.237 605.787 620.332 603.656 620.427 601.525L640.215 537.283C650.507 508.916 680.645 491.041 712.087 494.576C785.062 503.162 836.825 506.534 860.621 504.391C867.426 503.626 874.042 507.124 877.184 512.601C879.246 516.964 880.183 521.276 878.82 526.553C877.504 530.765 873.935 534.876 869.335 536.807C850.934 544.528 814.322 555.71 768.237 551.523L758.776 611.955C758.633 615.151 755.16 617.132 752.907 617.031L752.954 615.966Z" fill="#5BB194"/>
<path d="M1449.54 545.107L1480.72 553.623L1490.96 527.103L1494.22 527.993C1512.6 533.957 1528.47 532.617 1536.29 531.443C1537.34 531.257 1537.92 530.945 1538.63 530.192C1539.34 529.439 1539.11 528.431 1538.89 527.424C1538.66 526.417 1537.38 525.596 1535.99 525.214C1525.86 523.865 1503.52 517.764 1473.87 507.302C1462.94 503.372 1450.31 507.489 1444.76 516.847L1431.39 540.15L1439.77 542.437L1454.32 516.622L1450.01 545.234L1449.54 545.107ZM1527.26 566.333L1537.96 569.256L1537.14 541.134C1521.26 544.361 1502.87 540.284 1498.21 539.013L1491.42 556.546L1518.42 563.918L1523.58 544.997L1527.72 566.46L1527.26 566.333ZM1539.33 573.412L1525.37 569.599C1524.44 569.345 1523.63 568.65 1523.4 567.643L1522.28 562.607L1521.31 566.128C1520.95 567.448 1519.78 568.074 1518.39 567.692L1488.6 559.558C1487.67 559.304 1487.33 558.736 1486.98 558.169C1486.64 557.602 1486.41 556.595 1487 556.282L1494.97 536.236C1495.33 534.916 1496.97 534.417 1497.9 534.671C1497.9 534.671 1520.7 540.899 1538.34 536.733C1538.93 536.42 1539.86 536.675 1540.67 537.369C1541.02 537.936 1541.83 538.63 1541.71 539.07L1542.96 571.094C1542.72 571.975 1542.6 572.415 1541.9 573.167C1541.31 573.48 1540.26 573.666 1539.79 573.539L1539.33 573.412ZM1524.6 491.841C1518.55 490.189 1512.69 493.318 1511.13 499.038C1509.57 504.759 1513.02 510.43 1519.07 512.083C1525.12 513.735 1530.98 510.606 1532.54 504.885C1534.1 499.165 1530.65 493.493 1524.6 491.841ZM1518.11 515.603C1510.2 513.442 1505.37 505.502 1507.41 498.022C1509.45 490.541 1517.65 486.16 1525.56 488.321C1533.47 490.482 1538.31 498.422 1536.26 505.902C1534.22 513.383 1526.02 517.764 1518.11 515.603ZM1487.76 476.578C1480.78 474.672 1473.75 478.427 1471.95 485.027C1470.15 491.628 1474.29 498.433 1481.27 500.34C1488.25 502.247 1495.28 498.491 1497.08 491.891C1498.88 485.29 1494.74 478.485 1487.76 476.578ZM1480.31 503.86C1471.47 501.445 1465.94 492.371 1468.23 484.011C1470.51 475.65 1479.88 470.643 1488.72 473.058C1497.56 475.473 1503.09 484.547 1500.8 492.908C1498.52 501.268 1489.15 506.275 1480.31 503.86ZM1481.04 557.964L1447.06 548.686C1445.67 548.304 1444.98 547.17 1445.34 545.85L1446.33 538.555L1442.54 545.087C1441.84 545.84 1440.67 546.466 1439.74 546.212L1428.57 543.161C1427.64 542.907 1427.29 542.34 1426.95 541.773C1426.6 541.206 1426.84 540.326 1427.08 539.446L1441.39 514.51C1448.36 503.646 1462.62 499.03 1475.41 503.469C1505.06 513.931 1526.35 520.218 1536.48 521.567C1539.4 521.89 1541.83 523.972 1542.62 526.554C1543.07 528.568 1543.06 530.455 1541.99 532.528C1541.05 534.162 1539.17 535.54 1537.07 535.912C1528.66 537.399 1512.33 538.612 1493.49 532.52L1483.84 556.839C1483.48 558.16 1481.85 558.658 1480.92 558.404L1481.04 557.964Z" fill="#5BB194"/>
</g>
<defs>
<filter id="filter0_f_160_141" x="-10" y="0" width="1940" height="678" filterUnits="userSpaceOnUse" color-interpolation-filters="sRGB">
<feFlood flood-opacity="0" result="BackgroundImageFix"/>
<feBlend mode="normal" in="SourceGraphic" in2="BackgroundImageFix" result="shape"/>
<feGaussianBlur stdDeviation="5" result="effect1_foregroundBlur_160_141"/>
</filter>
<clipPath id="clip0_160_141">
<rect width="1920" height="658" fill="white" transform="translate(0 10)"/>
</clipPath>
</defs>
</svg>
