<svg width="1449" height="1429" viewBox="0 0 1449 1429" fill="none" xmlns="http://www.w3.org/2000/svg">
<path d="M134.623 61.8765C92.3195 61.8765 57.8865 96.2588 57.8865 138.5C57.8865 159.129 65.7569 178.776 80.5139 192.529C95.2709 207.265 113.963 215.124 134.623 215.124C155.283 215.124 174.959 207.265 188.732 192.529C219.23 162.076 219.23 113.941 188.732 83.4882C173.975 68.7529 154.299 60.8941 134.623 60.8941V61.8765ZM134.623 222C111.995 222 91.3357 213.159 75.5949 197.441C59.8541 181.724 50.9999 161.094 50.9999 138.5C50.9999 92.3294 88.3843 55 134.623 55C156.266 55 177.91 63.8412 193.651 79.5588C226.116 111.976 226.116 165.024 193.651 197.441C177.91 213.159 157.25 222 134.623 222ZM111.012 204.318L108.06 201.371L105.109 185.653C105.109 183.688 104.125 182.706 103.141 180.741L94.2871 168.953C93.3033 167.971 92.3195 166.006 92.3195 165.024L89.3681 154.218C88.3843 152.253 87.4005 151.271 83.4653 150.288L81.4977 149.306C79.5301 149.306 78.5463 148.324 77.5625 147.341L71.6597 142.429C70.6759 141.447 69.6921 140.465 68.7083 139.482C66.7407 135.553 61.8217 133.588 56.9027 133.588L55.9189 127.694C62.8055 126.712 70.6759 129.659 73.6273 136.535C73.6273 137.518 74.6111 137.518 74.6111 138.5L80.5139 143.412C80.5139 143.412 81.4977 144.394 82.4815 144.394H84.4491C88.3843 145.376 93.3033 146.359 95.2709 152.253L98.2223 163.059C98.2223 164.041 99.2061 164.041 99.2061 165.024L108.06 176.812C110.028 178.776 111.012 181.724 111.012 184.671L111.995 189.582C112.979 188.6 112.979 187.618 113.963 186.635L116.914 183.688L119.866 174.847C120.85 170.918 122.817 167.971 125.769 166.006L132.655 161.094L128.72 156.182C128.72 156.182 127.736 155.2 127.736 154.218L123.801 148.324C122.817 146.359 119.866 145.376 117.898 145.376C116.914 145.376 114.947 145.376 113.963 144.394L105.109 139.482C104.125 138.5 103.141 138.5 102.157 139.482L97.2385 141.447C91.3357 144.394 82.4815 142.429 78.5463 136.535L74.6111 129.659C71.6597 124.747 71.6597 118.853 74.6111 113.941C77.5625 109.029 83.4653 106.082 89.3681 107.065L96.2547 108.047H97.2385C100.19 103.135 106.093 100.188 111.995 100.188H114.947H115.931L118.882 97.2412C119.866 96.2588 119.866 94.2941 118.882 93.3118L112.979 85.4529C111.012 83.4882 109.044 81.5235 107.076 79.5588C106.093 78.5765 105.109 78.5765 104.125 77.5941L94.2871 70.7176L98.2223 65.8059L108.06 72.6824C109.044 73.6647 110.028 73.6647 110.028 74.6471C112.979 76.6118 115.931 79.5588 117.898 82.5059L123.801 90.3647C125.769 94.2941 125.769 98.2235 123.801 102.153L120.85 105.1C118.882 107.065 116.914 108.047 114.947 108.047H111.995C108.06 107.065 105.109 109.029 103.141 112.959C101.174 114.924 99.2061 116.888 96.2547 115.906L89.3681 114.924C85.4329 114.924 82.4815 115.906 80.5139 118.853C78.5463 121.8 78.5463 124.747 80.5139 127.694L84.4491 134.571C86.4167 137.518 91.3357 139.482 94.2871 137.518L99.2061 135.553C102.157 133.588 106.093 134.571 108.06 135.553L116.914 140.465C121.833 140.465 125.769 142.429 128.72 146.359L132.655 152.253L133.639 153.235L139.542 160.112C140.526 161.094 140.526 162.076 140.526 163.059C140.526 164.041 139.542 165.024 138.558 166.006L130.688 171.9C128.72 173.865 126.752 175.829 126.752 177.794L123.801 186.635C123.801 187.618 122.817 188.6 122.817 188.6L119.866 191.547C117.898 193.512 116.914 196.459 116.914 199.406C116.914 201.371 115.931 203.335 113.963 204.318L111.995 205.3L111.012 204.318ZM176.926 174.847C174.959 174.847 172.007 172.882 172.007 170.918V167.971C172.007 164.041 170.04 161.094 166.104 159.129C164.137 158.147 163.153 156.182 163.153 154.218V151.271C163.153 149.306 164.137 147.341 165.121 145.376L178.894 132.606C182.829 129.659 183.813 123.765 182.829 118.853C180.861 113.941 176.926 110.012 172.007 110.012H171.023C169.056 110.012 167.088 109.029 166.104 107.065C165.121 105.1 164.137 103.135 165.121 101.171L168.072 96.2588C172.007 90.3647 175.942 84.4706 180.861 78.5765L182.829 75.6294L187.748 79.5588L185.78 82.5059C180.861 88.4 176.926 93.3118 172.991 99.2059L171.023 103.135C171.023 103.135 171.023 103.135 172.007 103.135H172.991C180.861 104.118 186.764 109.029 188.732 116.888C190.699 123.765 188.732 131.624 182.829 136.535L169.056 149.306V150.288V153.235C173.975 156.182 176.926 161.094 176.926 166.988V168.953H183.813C185.78 168.953 187.748 167.971 188.732 166.006L189.716 165.024C192.667 159.129 198.57 154.218 205.456 154.218H208.408L209.392 160.112H205.456C200.537 160.112 196.602 163.059 194.635 167.971L193.651 168.953C191.683 172.882 187.748 175.829 182.829 175.829H174.959L176.926 174.847Z" fill="#64C7F3"/>
<path d="M1372.06 1292.38C1351.29 1292.38 1334.38 1309.26 1334.38 1330C1334.38 1340.13 1338.25 1349.78 1345.49 1356.53C1352.74 1363.76 1361.92 1367.62 1372.06 1367.62C1382.2 1367.62 1391.87 1363.76 1398.63 1356.53C1413.6 1341.58 1413.6 1317.94 1398.63 1302.99C1391.38 1295.75 1381.72 1291.89 1372.06 1291.89V1292.38ZM1372.06 1371C1360.95 1371 1350.81 1366.66 1343.08 1358.94C1335.35 1351.22 1331 1341.09 1331 1330C1331 1307.33 1349.36 1289 1372.06 1289C1382.69 1289 1393.32 1293.34 1401.04 1301.06C1416.99 1316.98 1416.99 1343.02 1401.04 1358.94C1393.32 1366.66 1383.17 1371 1372.06 1371ZM1360.47 1362.32L1359.02 1360.87L1357.57 1353.15C1357.57 1352.19 1357.09 1351.71 1356.6 1350.74L1352.25 1344.95C1351.77 1344.47 1351.29 1343.51 1351.29 1343.02L1349.84 1337.72C1349.36 1336.75 1348.87 1336.27 1346.94 1335.79L1345.97 1335.31C1345.01 1335.31 1344.53 1334.82 1344.04 1334.34L1341.14 1331.93C1340.66 1331.45 1340.18 1330.96 1339.7 1330.48C1338.73 1328.55 1336.31 1327.59 1333.9 1327.59L1333.42 1324.69C1336.8 1324.21 1340.66 1325.66 1342.11 1329.04C1342.11 1329.52 1342.59 1329.52 1342.59 1330L1345.49 1332.41C1345.49 1332.41 1345.97 1332.89 1346.46 1332.89H1347.42C1349.36 1333.38 1351.77 1333.86 1352.74 1336.75L1354.19 1342.06C1354.19 1342.54 1354.67 1342.54 1354.67 1343.02L1359.02 1348.81C1359.98 1349.78 1360.47 1351.22 1360.47 1352.67L1360.95 1355.08C1361.43 1354.6 1361.43 1354.12 1361.92 1353.64L1363.37 1352.19L1364.81 1347.85C1365.3 1345.92 1366.26 1344.47 1367.71 1343.51L1371.09 1341.09L1369.16 1338.68C1369.16 1338.68 1368.68 1338.2 1368.68 1337.72L1366.75 1334.82C1366.26 1333.86 1364.81 1333.38 1363.85 1333.38C1363.37 1333.38 1362.4 1333.38 1361.92 1332.89L1357.57 1330.48C1357.09 1330 1356.6 1330 1356.12 1330.48L1353.7 1331.45C1350.81 1332.89 1346.46 1331.93 1344.53 1329.04L1342.59 1325.66C1341.14 1323.25 1341.14 1320.35 1342.59 1317.94C1344.04 1315.53 1346.94 1314.08 1349.84 1314.56L1353.22 1315.05H1353.7C1355.15 1312.64 1358.05 1311.19 1360.95 1311.19H1362.4H1362.88L1364.33 1309.74C1364.81 1309.26 1364.81 1308.29 1364.33 1307.81L1361.43 1303.95C1360.47 1302.99 1359.5 1302.02 1358.53 1301.06C1358.05 1300.58 1357.57 1300.58 1357.09 1300.09L1352.25 1296.72L1354.19 1294.31L1359.02 1297.68C1359.5 1298.16 1359.98 1298.16 1359.98 1298.65C1361.43 1299.61 1362.88 1301.06 1363.85 1302.51L1366.75 1306.36C1367.71 1308.29 1367.71 1310.22 1366.75 1312.15L1365.3 1313.6C1364.33 1314.56 1363.37 1315.05 1362.4 1315.05H1360.95C1359.02 1314.56 1357.57 1315.53 1356.6 1317.46C1355.64 1318.42 1354.67 1319.39 1353.22 1318.91L1349.84 1318.42C1347.91 1318.42 1346.46 1318.91 1345.49 1320.35C1344.53 1321.8 1344.53 1323.25 1345.49 1324.69L1347.42 1328.07C1348.39 1329.52 1350.81 1330.48 1352.25 1329.52L1354.67 1328.55C1356.12 1327.59 1358.05 1328.07 1359.02 1328.55L1363.37 1330.96C1365.78 1330.96 1367.71 1331.93 1369.16 1333.86L1371.09 1336.75L1371.58 1337.24L1374.48 1340.61C1374.96 1341.09 1374.96 1341.58 1374.96 1342.06C1374.96 1342.54 1374.48 1343.02 1373.99 1343.51L1370.13 1346.4C1369.16 1347.36 1368.2 1348.33 1368.2 1349.29L1366.75 1353.64C1366.75 1354.12 1366.26 1354.6 1366.26 1354.6L1364.81 1356.05C1363.85 1357.01 1363.37 1358.46 1363.37 1359.91C1363.37 1360.87 1362.88 1361.84 1361.92 1362.32L1360.95 1362.8L1360.47 1362.32ZM1392.83 1347.85C1391.87 1347.85 1390.42 1346.88 1390.42 1345.92V1344.47C1390.42 1342.54 1389.45 1341.09 1387.52 1340.13C1386.55 1339.65 1386.07 1338.68 1386.07 1337.72V1336.27C1386.07 1335.31 1386.55 1334.34 1387.04 1333.38L1393.8 1327.11C1395.73 1325.66 1396.21 1322.76 1395.73 1320.35C1394.76 1317.94 1392.83 1316.01 1390.42 1316.01H1389.93C1388.97 1316.01 1388 1315.53 1387.52 1314.56C1387.04 1313.6 1386.55 1312.64 1387.04 1311.67L1388.48 1309.26C1390.42 1306.36 1392.35 1303.47 1394.76 1300.58L1395.73 1299.13L1398.15 1301.06L1397.18 1302.51C1394.76 1305.4 1392.83 1307.81 1390.9 1310.71L1389.93 1312.64C1389.93 1312.64 1389.93 1312.64 1390.42 1312.64H1390.9C1394.76 1313.12 1397.66 1315.53 1398.63 1319.39C1399.59 1322.76 1398.63 1326.62 1395.73 1329.04L1388.97 1335.31V1335.79V1337.24C1391.38 1338.68 1392.83 1341.09 1392.83 1343.99V1344.95H1396.21C1397.18 1344.95 1398.15 1344.47 1398.63 1343.51L1399.11 1343.02C1400.56 1340.13 1403.46 1337.72 1406.84 1337.72H1408.29L1408.77 1340.61H1406.84C1404.43 1340.61 1402.49 1342.06 1401.53 1344.47L1401.04 1344.95C1400.08 1346.88 1398.15 1348.33 1395.73 1348.33H1391.87L1392.83 1347.85Z" fill="#64C7F3"/>
<path d="M656.147 551.235C605.485 551.235 564.247 592.412 564.247 643C564.247 667.706 573.673 691.235 591.346 707.706C609.019 725.353 631.405 734.765 656.147 734.765C680.89 734.765 704.454 725.353 720.948 707.706C757.473 671.235 757.473 613.588 720.948 577.118C703.275 559.471 679.711 550.059 656.147 550.059V551.235ZM656.147 743C629.049 743 604.306 732.412 585.455 713.588C566.604 694.765 556 670.059 556 643C556 587.706 600.772 543 656.147 543C682.068 543 707.988 553.588 726.839 572.412C765.72 611.235 765.72 674.765 726.839 713.588C707.988 732.412 683.246 743 656.147 743ZM627.87 721.824L624.336 718.294L620.801 699.471C620.801 697.118 619.623 695.941 618.445 693.588L607.841 679.471C606.663 678.294 605.485 675.941 605.485 674.765L601.95 661.824C600.772 659.471 599.594 658.294 594.881 657.118L592.524 655.941C590.168 655.941 588.99 654.765 587.811 653.588L580.742 647.706C579.564 646.529 578.386 645.353 577.208 644.176C574.851 639.471 568.96 637.118 563.069 637.118L561.891 630.059C570.138 628.882 579.564 632.412 583.099 640.647C583.099 641.824 584.277 641.824 584.277 643L591.346 648.882C591.346 648.882 592.524 650.059 593.703 650.059H596.059C600.772 651.235 606.663 652.412 609.019 659.471L612.554 672.412C612.554 673.588 613.732 673.588 613.732 674.765L624.336 688.882C626.692 691.235 627.87 694.765 627.87 698.294L629.049 704.176C630.227 703 630.227 701.824 631.405 700.647L634.94 697.118L638.474 686.529C639.652 681.824 642.009 678.294 645.543 675.941L653.791 670.059L649.078 664.176C649.078 664.176 647.9 663 647.9 661.824L643.187 654.765C642.009 652.412 638.474 651.235 636.118 651.235C634.94 651.235 632.583 651.235 631.405 650.059L620.801 644.176C619.623 643 618.445 643 617.267 644.176L611.376 646.529C604.306 650.059 593.703 647.706 588.99 640.647L584.277 632.412C580.742 626.529 580.742 619.471 584.277 613.588C587.811 607.706 594.881 604.176 601.95 605.353L610.197 606.529H611.376C614.91 600.647 621.979 597.118 629.049 597.118H632.583H633.761L637.296 593.588C638.474 592.412 638.474 590.059 637.296 588.882L630.227 579.471C627.87 577.118 625.514 574.765 623.158 572.412C621.979 571.235 620.801 571.235 619.623 570.059L607.841 561.824L612.554 555.941L624.336 564.176C625.514 565.353 626.692 565.353 626.692 566.529C630.227 568.882 633.761 572.412 636.118 575.941L643.187 585.353C645.543 590.059 645.543 594.765 643.187 599.471L639.652 603C637.296 605.353 634.94 606.529 632.583 606.529H629.049C624.336 605.353 620.801 607.706 618.445 612.412C616.088 614.765 613.732 617.118 610.197 615.941L601.95 614.765C597.237 614.765 593.703 615.941 591.346 619.471C588.99 623 588.99 626.529 591.346 630.059L596.059 638.294C598.415 641.824 604.306 644.176 607.841 641.824L613.732 639.471C617.267 637.118 621.979 638.294 624.336 639.471L634.94 645.353C640.831 645.353 645.543 647.706 649.078 652.412L653.791 659.471L654.969 660.647L662.038 668.882C663.216 670.059 663.216 671.235 663.216 672.412C663.216 673.588 662.038 674.765 660.86 675.941L651.434 683C649.078 685.353 646.722 687.706 646.722 690.059L643.187 700.647C643.187 701.824 642.009 703 642.009 703L638.474 706.529C636.118 708.882 634.94 712.412 634.94 715.941C634.94 718.294 633.761 720.647 631.405 721.824L629.049 723L627.87 721.824ZM706.81 686.529C704.454 686.529 700.919 684.176 700.919 681.824V678.294C700.919 673.588 698.563 670.059 693.85 667.706C691.493 666.529 690.315 664.176 690.315 661.824V658.294C690.315 655.941 691.493 653.588 692.672 651.235L709.166 635.941C713.879 632.412 715.057 625.353 713.879 619.471C711.523 613.588 706.81 608.882 700.919 608.882H699.741C697.384 608.882 695.028 607.706 693.85 605.353C692.672 603 691.493 600.647 692.672 598.294L696.206 592.412C700.919 585.353 705.632 578.294 711.523 571.235L713.879 567.706L719.77 572.412L717.414 575.941C711.523 583 706.81 588.882 702.097 595.941L699.741 600.647C699.741 600.647 699.741 600.647 700.919 600.647H702.097C711.523 601.824 718.592 607.706 720.948 617.118C723.305 625.353 720.948 634.765 713.879 640.647L697.384 655.941V657.118V660.647C703.275 664.176 706.81 670.059 706.81 677.118V679.471H715.057C717.414 679.471 719.77 678.294 720.948 675.941L722.127 674.765C725.661 667.706 732.73 661.824 740.978 661.824H744.513L745.691 668.882H740.978C735.087 668.882 730.374 672.412 728.018 678.294L726.839 679.471C724.483 684.176 719.77 687.706 713.879 687.706H704.454L706.81 686.529Z" fill="#64C7F3"/>
<path d="M1148.07 550.214C1144.42 548.548 1141.43 548.655 1137.88 549.98C1134.33 551.304 1132.01 553.185 1130.34 556.838L1119.23 581.194L1122.69 560.705C1123.14 556.497 1123.03 553.506 1119.93 550.622C1118.05 548.293 1116.84 547.738 1114.4 546.627C1107.09 543.295 1099.45 547.162 1096.67 553.251C1096.11 554.469 1096.11 554.469 1092.1 576.175L1091.54 577.393L1091.33 571.411C1090.56 566.647 1088.02 562.545 1084.36 560.879C1078.27 558.102 1071.18 560.751 1068.41 566.84C1067.29 569.276 1066.74 570.494 1066.85 573.485L1068.92 597.968C1069.24 606.941 1068.34 615.358 1064.46 623.883C1063.9 625.101 1062.79 627.536 1062.24 628.754C1061.68 629.972 1059.01 639.052 1060.44 645.589C1060.55 648.58 1061.87 652.126 1063.2 655.673C1066.51 664.539 1074.59 672.635 1083.11 676.523L1090.42 679.855C1100.16 684.298 1111.57 685.088 1122.21 681.113L1176.51 658.806C1181.83 656.819 1183.5 653.165 1183.95 648.957C1184.4 644.748 1181.85 640.646 1176.98 638.424C1170.89 635.648 1163.69 635.306 1156.6 637.956L1140.09 645.135L1144.53 635.393C1145.09 634.175 1148.52 629.859 1157.18 620.565L1179.59 594.008C1182.47 590.91 1182.92 586.702 1182.15 581.937C1181.38 577.173 1178.28 574.289 1174.63 572.623C1168.54 569.846 1163.22 571.833 1158.56 575.594L1141.92 595.955L1154.14 569.164C1157.47 561.857 1153.6 554.209 1147.52 551.432L1148.07 550.214ZM1145.85 555.085C1149.5 556.751 1152.05 560.853 1149.82 565.724L1125.94 618.089C1125.39 619.307 1126.05 621.08 1127.27 621.636C1128.48 622.191 1128.48 622.191 1130.26 621.528L1165.31 580.144C1168.2 577.046 1171.19 576.939 1173.62 578.05C1178.5 580.271 1178.71 586.253 1175.83 589.351C1139.1 634.389 1140.77 630.736 1140.21 631.954L1135.22 642.914C1133.55 646.567 1134.87 650.113 1138.53 651.78C1139.75 652.335 1142.18 653.446 1143.29 651.01L1159.81 643.831C1165.13 641.843 1171.11 641.629 1175.98 643.851C1179.63 645.517 1181.06 652.054 1175.74 654.042L1121.44 676.349C1112.57 679.661 1102.38 679.427 1093.86 675.539L1086.55 672.207C1079.24 668.875 1073.05 663.107 1069.74 654.241C1069.07 652.468 1067.75 648.921 1067.64 645.93C1066.87 641.166 1068.99 633.304 1069.54 632.086C1070.1 630.869 1070.65 629.651 1071.21 628.433C1075.1 619.908 1077.1 609.055 1075.56 599.527L1073.49 575.044C1074.05 573.826 1073.38 572.053 1073.38 572.053C1075.05 568.4 1078.6 567.075 1082.25 568.741C1084.68 569.852 1085.35 571.625 1086.01 573.398L1089.62 607.409C1089.07 608.627 1090.28 609.183 1090.28 609.183C1091.5 609.738 1093.28 609.076 1093.83 607.858C1102.65 553.037 1102.2 557.246 1102.76 556.028C1104.42 552.375 1109.74 550.387 1113.4 552.054C1114.61 552.609 1115.83 553.164 1116.5 554.938C1117.16 556.711 1117.82 558.484 1118.48 560.257L1110 607.878C1109.45 609.096 1110.67 609.651 1111.88 610.207C1113.1 610.762 1114.88 610.1 1115.43 608.882L1138.2 558.953C1139.31 556.517 1141.09 555.855 1142.86 555.192C1144.63 554.53 1147.62 554.423 1148.84 554.978L1145.85 555.085Z" fill="#64C7F3"/>
<path d="M65.6947 1280.19C63.1419 1281.82 61.9832 1283.76 61.3674 1286.55C60.7517 1289.33 60.9869 1291.58 62.616 1294.13L73.477 1311.15L61.9276 1300.56C59.4476 1298.55 57.5105 1297.39 54.4147 1298.17C52.1699 1298.4 51.319 1298.95 49.6171 1300.03C44.5116 1303.29 43.8232 1309.72 46.5385 1313.97C47.0815 1314.82 47.0815 1314.82 59.1739 1326.27L59.717 1327.12L55.843 1324.8C52.512 1323.33 48.8732 1323.26 46.3204 1324.89C42.0658 1327.6 40.8344 1333.18 43.5496 1337.43C44.6357 1339.14 45.1788 1339.99 47.1158 1341.15L63.4628 1349.87C69.2738 1353.35 74.2339 1357.37 78.0353 1363.33C78.5783 1364.18 79.6644 1365.88 80.2074 1366.73C80.7505 1367.58 85.4027 1372.99 90.1277 1374.77C92.0647 1375.93 94.8526 1376.54 97.6405 1377.16C104.61 1378.7 113.047 1376.91 119.003 1373.1L124.109 1369.85C130.916 1365.5 136.094 1358.6 137.941 1350.24L146.091 1306.72C147.015 1302.54 145.386 1299.99 142.906 1297.98C140.426 1295.97 136.787 1295.89 133.383 1298.07C129.129 1300.78 125.96 1305.2 124.729 1310.77L122.501 1324.17L118.156 1317.36C117.613 1316.51 116.292 1312.57 113.957 1303.28L106.338 1278.2C105.559 1275.11 103.079 1273.1 99.7484 1271.63C96.4174 1270.17 93.3216 1270.94 90.7689 1272.57C86.5143 1275.29 85.5907 1279.47 86.0611 1283.96L92.1244 1302.84L80.1774 1284.12C76.9191 1279.02 70.4923 1278.33 66.2377 1281.04L65.6947 1280.19ZM67.8669 1283.6C70.4196 1281.97 74.0585 1282.04 76.2307 1285.44L99.5817 1322.03C100.125 1322.88 101.519 1323.19 102.37 1322.65C103.221 1322.11 103.221 1322.11 103.528 1320.71L91.7096 1281.55C90.9314 1278.46 92.0902 1276.52 93.792 1275.43C97.1957 1273.26 101.07 1275.58 101.848 1278.67C115.296 1320.39 113.667 1317.83 114.21 1318.68L119.097 1326.34C120.726 1328.9 123.514 1329.51 126.067 1327.88C126.918 1327.34 128.62 1326.25 127.534 1324.55L129.761 1311.15C130.685 1306.97 133.003 1303.1 136.406 1300.93C138.959 1299.3 143.684 1301.07 142.76 1305.25L134.61 1348.77C133.071 1355.74 128.744 1362.1 122.787 1365.9L117.682 1369.16C112.576 1372.42 106.385 1373.97 99.4151 1372.43C98.0211 1372.13 95.2332 1371.51 93.2962 1370.35C89.9652 1368.88 85.856 1364.32 85.3129 1363.47C84.7699 1362.62 84.2268 1361.77 83.6838 1360.92C79.8825 1354.96 73.8362 1349.24 67.1743 1346.31L50.8273 1337.58C50.2842 1336.73 48.8903 1336.42 48.8903 1336.42C47.2611 1333.87 47.8769 1331.08 50.4296 1329.45C52.1314 1328.37 53.5254 1328.67 54.9194 1328.98L77.9283 1340.64C78.4714 1341.49 79.3223 1340.95 79.3223 1340.95C80.1732 1340.41 80.4811 1339.01 79.938 1338.16C48.856 1310.1 51.3361 1312.11 50.793 1311.26C49.1639 1308.7 50.0875 1304.52 52.6402 1302.89C53.4911 1302.35 54.3421 1301.81 55.736 1302.12C57.13 1302.42 58.524 1302.73 59.9179 1303.04L86.5828 1327.93C87.1259 1328.78 87.9768 1328.24 88.8277 1327.7C89.6786 1327.16 89.9865 1325.76 89.4434 1324.91L67.1785 1290.02C66.0924 1288.32 66.4002 1286.93 66.7081 1285.53C67.016 1284.14 68.1747 1282.2 69.0257 1281.66L67.8669 1283.6Z" fill="#64C7F3"/>
<path fill-rule="evenodd" clip-rule="evenodd" d="M1275.65 904.187C1283.88 907.92 1288.23 912.928 1291.43 920.455C1294.63 927.982 1295.09 934.265 1291.66 941.822L1248.59 1028.59C1251.72 1026.51 1259.61 1023.09 1266.13 1026.05C1274.29 1029.74 1282.38 1049.8 1281.77 1051.16C1281.27 1052.25 1280.24 1058.15 1279.79 1060.96C1284.37 1062.03 1294.91 1066 1300.39 1073.35C1307.24 1082.52 1303.61 1098.76 1301.15 1104.2C1298.68 1109.63 1284.2 1138.39 1277.53 1148.02C1276.39 1150.54 1265.65 1166.93 1252.85 1173.27C1247.82 1177.06 1240.05 1179.61 1232.27 1182.16C1212.84 1188.54 1187.47 1186.14 1168.26 1177.43L1151.8 1169.96C1129.85 1160 1111.33 1142.49 1101.72 1119.91L1055.97 1001.97C1051.17 990.68 1054.6 983.123 1060.77 976.81C1066.94 970.497 1077.45 969.192 1088.43 974.17C1102.15 980.392 1113.58 991.652 1119.99 1006.71L1133.25 1043.1L1142.39 1022.94C1143.54 1020.42 1145.36 1009.1 1147.41 982.7L1156.77 911.013C1157.46 902.212 1163.63 895.899 1172.54 890.831C1181.46 885.763 1190.83 886.977 1199.06 890.71C1212.78 896.932 1217.58 908.222 1218.5 920.787L1210.51 974.871L1235.65 919.452C1242.5 904.338 1260.79 900.484 1274.51 906.706L1275.65 904.187ZM1271.08 914.263C1262.85 910.53 1252.33 911.835 1247.76 921.911L1198.63 1030.23C1197.49 1032.75 1193.61 1034.02 1190.86 1032.78C1188.12 1031.53 1188.12 1031.53 1186.52 1027.77L1200.9 915.84C1201.58 907.038 1197.23 902.031 1191.75 899.542C1180.77 894.564 1170.72 902.151 1170.03 910.953C1156.68 1000.57 1155.27 1018.72 1154.91 1023.26C1154.83 1024.29 1154.81 1024.62 1154.71 1024.92C1154.66 1025.07 1154.6 1025.2 1154.51 1025.4L1144.23 1048.07C1140.8 1055.63 1133.03 1058.18 1124.8 1054.45C1122.05 1053.2 1116.57 1050.71 1118.85 1045.68L1105.58 1009.29C1100.78 997.995 1092.09 987.979 1081.12 983.002C1072.88 979.269 1060.08 985.611 1064.89 996.902L1110.64 1114.84C1118.64 1133.66 1134.42 1149.93 1153.62 1158.64L1170.09 1166.11C1186.55 1173.57 1205.3 1176 1224.73 1169.63C1228.61 1168.35 1236.39 1165.8 1241.41 1162.01C1250.33 1156.94 1261.82 1143.93 1262.96 1141.41C1263.54 1140.15 1266.28 1135.9 1269.03 1131.65C1271.78 1127.39 1274.53 1123.14 1275.1 1121.88C1270.83 1125.95 1260.21 1132.49 1251.89 1126.1C1242.3 1118.73 1232.64 1108.83 1246.44 1093.47C1238.63 1100.74 1226.43 1109.63 1221.12 1107.23C1213.28 1103.67 1197.3 1091.51 1202.24 1080.64C1206.23 1071.84 1214.88 1062.32 1225.18 1050.98C1227.61 1048.31 1230.13 1045.53 1232.7 1042.64C1229.96 1041.4 1228.36 1037.64 1229.5 1035.12L1276.34 931.836C1278.63 926.798 1277.03 923.035 1275.43 919.271C1273.82 915.508 1269.48 910.5 1266.74 909.255L1271.08 914.263ZM1240.59 1046.22C1241.1 1045.81 1241.78 1045.17 1242.57 1044.41C1246.86 1040.35 1254.75 1032.87 1260.58 1038.28C1266.16 1043.45 1276.73 1056.4 1263.8 1068.9C1252.63 1081.04 1227.76 1102.36 1217.62 1090.47C1207.42 1078.51 1224.37 1062.17 1234.72 1052.19C1237.22 1049.78 1239.34 1047.74 1240.59 1046.22ZM1288.81 1077.2C1285.37 1073.22 1277.72 1069.14 1270.89 1075.15C1259.79 1084.55 1240.64 1105.68 1252.79 1115.04C1262.82 1122.75 1268.62 1118.87 1274.02 1115.26C1275.16 1114.49 1276.29 1113.74 1277.44 1113.11C1299.22 1088.22 1294.27 1082.99 1289.97 1078.47C1289.57 1078.05 1289.18 1077.63 1288.81 1077.2Z" fill="#EF89AD"/>
<path fill-rule="evenodd" clip-rule="evenodd" d="M938.138 323.129C942.112 323.729 944.578 325.346 946.86 328.179C949.142 331.012 950.099 333.645 949.548 337.294L941.627 379.641C942.714 378.372 945.675 375.952 948.825 376.428C952.762 377.023 958.657 384.626 958.558 385.282C958.479 385.807 958.753 388.457 958.899 389.716C960.991 389.617 965.982 390.039 969.215 392.519C973.257 395.617 973.672 403.004 973.276 405.629C972.879 408.254 970.167 422.315 968.479 427.242C968.295 428.459 965.684 436.773 960.974 441.038C959.282 443.27 956.265 445.303 953.247 447.335C945.704 452.416 934.555 454.464 925.281 453.063L917.332 451.862C906.734 450.26 896.686 445.01 889.84 436.511L855.977 391.583C852.554 387.333 853.105 383.684 854.981 380.235C856.858 376.786 861.2 374.954 866.499 375.755C873.123 376.756 879.379 380.189 883.943 385.855L894.029 399.82L895.499 390.089C895.683 388.873 895.093 383.807 892.773 372.26L888.094 340.45C887.32 336.601 889.196 333.152 892.397 329.903C895.598 326.654 899.757 326.039 903.731 326.639C910.355 327.64 913.778 331.89 915.693 337.155L918.825 361.267L922.868 334.507C923.971 327.209 931.33 323.344 937.954 324.345L938.138 323.129ZM937.403 327.994C933.428 327.394 929.086 329.226 928.351 334.091L920.448 386.394C920.265 387.611 918.756 388.627 917.431 388.427C916.106 388.227 916.106 388.226 914.965 386.81L907.56 337.171C906.786 333.321 904.321 331.705 901.671 331.304C896.372 330.504 892.987 334.969 893.761 338.818C898.901 378.784 900.496 386.723 900.895 388.708C900.986 389.159 901.015 389.303 901.009 389.445C901.007 389.511 900.997 389.577 900.982 389.674L899.328 400.621C898.777 404.27 895.76 406.302 891.785 405.702C890.46 405.502 887.811 405.101 888.178 402.668L878.093 388.703C874.67 384.454 869.738 381.221 864.439 380.42C860.464 379.819 855.755 384.084 859.178 388.334L893.041 433.262C898.746 440.345 907.469 445.395 916.742 446.796L924.691 447.997C932.64 449.198 940.957 447.966 948.499 442.885C950.008 441.869 953.025 439.837 954.718 437.604C957.919 434.356 961.261 427.396 961.445 426.18C961.537 425.571 962.197 423.418 962.858 421.265C963.519 419.112 964.18 416.959 964.272 416.351C962.938 418.61 959.185 422.697 954.849 420.968C949.854 418.976 944.523 415.91 948.566 407.665C946.105 411.722 941.959 417.007 939.396 416.619C935.61 416.047 927.302 412.779 928.096 407.529C928.738 403.28 931.286 398.158 934.321 392.058C935.036 390.62 935.779 389.128 936.53 387.58C935.205 387.38 934.064 385.963 934.248 384.747L941.783 334.877C942.15 332.444 941.009 331.028 939.868 329.611C938.727 328.195 936.262 326.578 934.937 326.378L937.403 327.994ZM940.341 388.156C940.509 387.917 940.72 387.562 940.97 387.142C942.311 384.884 944.781 380.726 947.933 382.334C950.947 383.872 957.04 388.135 953.017 395.048C949.71 401.598 941.651 413.734 935.871 409.875C930.055 405.99 935.33 396.944 938.55 391.422C939.33 390.086 939.988 388.956 940.341 388.156ZM964.727 395.573C962.774 394.282 959.004 393.464 956.808 396.864C953.199 402.23 947.564 413.594 953.898 416.126C959.121 418.213 961.134 415.848 963.007 413.649C963.405 413.182 963.796 412.722 964.211 412.314C970.515 399.024 967.762 397.39 965.379 395.974C965.155 395.841 964.936 395.711 964.727 395.573Z" fill="#EF89AD"/>
<path fill-rule="evenodd" clip-rule="evenodd" d="M87.7531 789.515C92.4882 788.104 96.0765 788.613 100.096 790.571C104.116 792.529 106.558 794.958 107.853 799.305L121.186 850.553C121.731 848.572 123.759 844.332 127.512 843.214C132.203 841.817 142.736 847.192 142.969 847.974C143.155 848.599 144.845 851.403 145.667 852.727C147.942 851.524 153.715 849.383 158.608 850.45C164.724 851.784 169.049 859.784 169.98 862.911C170.911 866.038 175.247 883.098 175.946 889.461C176.378 890.911 177.821 901.525 174.812 908.731C174.097 912.1 171.803 915.938 169.51 919.777C163.776 929.373 152.444 937.481 141.396 940.772L131.926 943.592C119.299 947.353 105.377 946.767 93.3176 940.892L32.1555 908.623C26.1256 905.686 24.8308 901.339 25.1143 896.521C25.3978 891.704 29.2696 887.395 35.583 885.515C43.4748 883.164 52.2297 883.712 60.2696 887.628L78.7909 897.889L75.3379 886.296C74.9063 884.847 71.6015 879.52 62.982 867.888L41.1432 834.951C38.27 831.073 38.5535 826.256 40.4154 820.968C42.2772 815.681 46.5807 812.821 51.3157 811.411C59.2074 809.061 65.2373 811.998 70.1205 816.854L86.2129 842.037L76.7174 810.156C74.1277 801.461 80.293 793.314 88.1848 790.964L87.7531 789.515ZM89.4796 795.311C84.7445 796.721 80.8727 801.03 82.5992 806.827L101.159 869.139C101.59 870.588 100.443 872.507 98.8651 872.978C97.2867 873.448 97.2867 873.448 95.2768 872.469L61.082 821.124C58.2088 817.246 54.6205 816.737 51.4638 817.678C45.1504 819.558 43.7202 826.295 46.5934 830.172C73.2106 871.941 79.1365 879.938 80.618 881.937C80.9549 882.392 81.0619 882.537 81.1302 882.697C81.162 882.772 81.1854 882.851 81.2197 882.966L85.1043 896.008C86.3991 900.356 84.1056 904.194 79.3706 905.604C77.7922 906.074 74.6355 907.015 73.7723 904.116L55.251 893.856C49.2211 890.919 42.0445 889.901 35.7311 891.782C30.9961 893.192 27.9875 900.399 34.0174 903.336L95.1795 935.605C105.229 940.5 117.573 941.557 128.621 938.266L138.091 935.445C147.561 932.625 156.168 926.906 161.902 917.31C163.048 915.39 165.342 911.552 166.057 908.184C167.919 902.896 167.997 893.407 167.566 891.957C167.35 891.233 166.959 888.492 166.569 885.752C166.178 883.011 165.787 880.27 165.571 879.546C165.269 882.757 163.232 889.265 157.503 889.609C150.905 890.006 143.372 889.383 143.559 878.096C142.942 883.897 141.094 891.943 138.041 892.853C133.53 894.196 122.579 894.904 120.716 888.649C119.209 883.588 119.365 876.557 119.552 868.185C119.596 866.212 119.641 864.163 119.667 862.049C118.089 862.519 116.079 861.54 115.647 860.091L97.951 800.676C97.0878 797.778 95.0779 796.799 93.0679 795.82C91.0579 794.841 87.4696 794.332 85.8913 794.802L89.4796 795.311ZM124.207 860.696C124.27 860.342 124.319 859.838 124.377 859.239C124.688 856.027 125.261 850.111 129.608 850.251C133.765 850.385 142.772 851.941 141.912 861.734C141.659 870.75 139.04 888.463 130.593 887.193C122.091 885.914 123.229 873.093 123.924 865.266C124.092 863.372 124.234 861.771 124.207 860.696ZM155.212 856.195C152.365 855.781 147.744 856.842 147.079 861.773C145.87 869.629 145.545 885.216 153.914 884.72C160.815 884.311 161.818 880.627 162.751 877.203C162.949 876.474 163.144 875.758 163.392 875.087C163.456 857.008 159.539 856.629 156.147 856.3C155.829 856.27 155.516 856.239 155.212 856.195Z" fill="#EF89AD"/>
<path d="M757.375 890.04C735.625 890.04 718.225 907.427 718.225 929.16C718.225 937.853 720.4 946.547 726.925 953.067C729.1 955.24 770.425 1000.88 790 1024.79L853.075 953.067C857.425 946.547 861.775 937.853 861.775 929.16C861.775 907.427 844.375 890.04 822.625 890.04C811.75 890.04 803.05 894.387 794.35 900.907L790 905.253L785.65 900.907C779.125 894.387 768.25 890.04 757.375 890.04ZM790 1040C785.65 1040 783.475 1037.83 781.3 1035.65C770.425 1022.61 716.05 963.933 716.05 961.76C707.35 953.067 703 940.027 703 929.16C703 900.907 726.925 877 757.375 877C770.425 877 781.3 881.347 790 887.867C798.7 881.347 811.75 877 822.625 877C853.075 877 877 900.907 877 929.16C877 942.2 872.65 953.067 863.95 961.76L798.7 1035.65C796.525 1037.83 792.175 1040 790 1040Z" fill="#64C7F3"/>
<path d="M1158.83 13.713C1147 11.0698 1135.42 18.4284 1132.77 30.2699C1131.72 35.0065 1131.84 40.0074 1134.6 44.3529C1135.52 45.8013 1152.44 75.6907 1160.18 91.0952L1203.23 59.6836C1206.39 56.6598 1209.82 52.4518 1210.87 47.7152C1213.52 35.8737 1206.17 24.2859 1194.33 21.6427C1188.42 20.3211 1183.16 21.6321 1177.63 24.1272L1174.73 25.9669L1172.9 23.0699C1170.14 18.7245 1164.75 15.0346 1158.83 13.713ZM1158.33 99.3843C1155.97 98.8556 1155.05 97.4072 1154.13 95.9587C1149.8 87.5322 1127.36 48.952 1127.62 47.7679C1123.95 41.974 1123.17 34.3404 1124.49 28.4196C1127.93 13.0257 1143.85 2.90755 1160.42 6.60807C1167.52 8.19401 1172.91 11.8839 1176.85 16.4937C1182.38 13.9985 1190 13.2161 1195.92 14.5378C1212.49 18.2383 1222.6 34.1715 1219.16 49.5655C1217.57 56.6704 1213.88 62.0625 1208.09 65.7418L1163.6 98.0733C1162.15 98.9931 1159.52 99.6486 1158.33 99.3843Z" fill="#64C7F3"/>
<path d="M979.587 1182.68C979.358 1182.64 979.358 1182.64 979.086 1182.82L897.386 1232.71C897.115 1232.9 897.073 1233.13 897.031 1233.36C896.989 1233.59 897.176 1233.86 897.635 1233.94L920.574 1238.15L910.454 1293.35C910.37 1293.81 910.557 1294.08 911.016 1294.16L1004.15 1311.24C1004.61 1311.32 1004.88 1311.14 1004.96 1310.68L1015.08 1255.48L1038.02 1259.68C1038.25 1259.72 1038.52 1259.54 1038.8 1259.35C1038.84 1259.12 1038.88 1258.89 1038.69 1258.62L980.004 1182.99C979.774 1182.95 979.816 1182.72 979.587 1182.68ZM1003.44 1315.13L910.302 1298.06C907.779 1297.59 906.092 1295.15 906.554 1292.64L915.919 1241.56L896.879 1238.07C895.044 1237.73 893.419 1236.25 893.066 1234.29C892.714 1232.33 893.551 1230.35 895.179 1229.23L976.879 1179.34C979.009 1178.07 981.532 1178.54 983.073 1180.48L1041.76 1256.1C1042.89 1257.73 1042.97 1259.88 1041.94 1261.58C1040.92 1263.29 1038.87 1264.1 1037.04 1263.76L1018 1260.27L1008.63 1311.35C1008.17 1313.87 1005.73 1315.55 1003.21 1315.09L1003.44 1315.13ZM961.286 1224.3C960.827 1224.22 960.368 1224.14 959.909 1224.05C955.696 1223.75 951.793 1225.64 949.474 1229.24C947.112 1233.07 946.961 1237.78 949.083 1241.72L963.507 1267.8C963.694 1268.07 964.153 1268.16 964.424 1267.97L987.163 1248.7C990.545 1245.77 992.073 1241.31 991.223 1236.9C990.331 1232.71 987.352 1229.56 983.307 1228.34C979.492 1227.17 975.34 1227.83 972.083 1230.07L970.455 1231.19L969.331 1229.57C967.227 1226.81 964.268 1224.85 960.827 1224.22L961.286 1224.3ZM963.439 1272.05C962.063 1271.8 960.812 1270.86 960.063 1269.77L945.639 1243.69C942.809 1238.44 943.025 1232.08 946.098 1226.97C949.128 1222.08 954.575 1219.52 960.206 1219.85C964.649 1220.19 968.985 1222.4 971.964 1225.55C975.867 1223.66 980.706 1223.13 984.981 1224.39C990.402 1225.85 994.548 1230.4 995.646 1236.05C996.932 1241.97 994.881 1247.98 990.141 1251.85L967.403 1271.12C966.276 1272.1 964.816 1272.3 963.439 1272.05Z" fill="#FFDB00"/>
<path d="M341.481 657.014C341.296 657.063 341.296 657.063 341.161 657.298L298.212 723.279C298.076 723.514 298.126 723.699 298.176 723.884C298.226 724.069 298.461 724.204 298.831 724.104L317.337 719.112L329.367 763.711C329.467 764.081 329.702 764.216 330.072 764.116L405.205 743.85C405.575 743.75 405.71 743.515 405.61 743.145L393.58 698.546L412.086 693.554C412.271 693.504 412.406 693.269 412.541 693.035C412.491 692.849 412.441 692.664 412.206 692.529L341.901 657.099C341.716 657.149 341.666 656.964 341.481 657.014ZM406.053 746.996L330.921 767.262C328.885 767.811 326.77 766.595 326.221 764.559L315.089 723.292L299.73 727.435C298.249 727.834 296.519 727.308 295.565 725.978C294.61 724.647 294.531 722.882 295.342 721.472L338.292 655.492C339.423 653.797 341.458 653.248 343.288 654.144L413.593 689.574C415.003 690.385 415.822 691.951 415.666 693.581C415.51 695.211 414.279 696.536 412.799 696.935L397.439 701.078L408.571 742.346C409.12 744.382 407.904 746.496 405.868 747.045L406.053 746.996ZM342.638 694.42C342.268 694.52 341.898 694.62 341.528 694.72C338.297 695.989 336.07 698.773 335.623 702.268C335.226 705.949 336.78 709.5 339.749 711.677L359.681 725.954C359.916 726.089 360.286 725.99 360.421 725.755L370.469 703.391C371.941 700.016 371.497 696.165 369.303 693.183C367.159 690.387 363.835 689.1 360.404 689.628C357.158 690.107 354.311 692.066 352.69 694.885L351.879 696.295L350.469 695.485C347.934 694.183 345.044 693.772 342.268 694.52L342.638 694.42ZM361.134 729.135C360.024 729.435 358.764 729.179 357.824 728.639L337.893 714.362C333.933 711.459 331.845 706.662 332.313 701.772C332.83 697.066 335.968 693.242 340.259 691.489C343.676 690.17 347.676 690.282 351.001 691.569C353.228 688.785 356.629 686.676 360.245 686.098C364.787 685.27 369.471 687.182 372.285 690.989C375.334 694.932 375.941 700.128 373.794 704.678L363.746 727.041C363.255 728.166 362.245 728.836 361.134 729.135Z" fill="#FFDB00"/>
<path d="M1233.3 351.204C1230.89 350.496 1228.05 349.008 1226.16 346.488C1219.13 339.18 1222.32 328.308 1222.5 327.704L1226.04 315.624C1226.57 313.812 1228.91 312.531 1230.72 313.061C1232.53 313.592 1233.81 315.935 1233.28 317.747L1229.74 329.827C1229.74 329.827 1227.79 336.471 1231.73 340.906C1233.79 342.821 1236.21 343.529 1238.97 343.028C1240.36 342.778 1241.14 342.351 1242.1 341.32L1257.63 330.789C1261.11 327.873 1268.91 323.602 1276.05 328.317C1282.76 332.252 1283.83 339.78 1281.63 345.039L1277.74 358.327C1277.21 360.139 1274.87 361.421 1273.06 360.89C1271.24 360.359 1269.97 358.017 1270.5 356.205L1274.39 342.917C1274.92 341.105 1275.38 337.304 1271.94 335.639C1268.07 333.192 1262.07 337.994 1262.07 337.994L1246.36 349.129C1244.62 350.587 1242.46 351.264 1240.29 351.942C1237.52 352.442 1234.93 352.339 1232.52 351.631L1233.3 351.204ZM1271.83 436.614C1235.02 425.824 1231.37 391.305 1234.52 373.862C1235.05 372.05 1236.79 370.592 1239.38 370.696C1241.19 371.227 1242.65 372.965 1242.54 375.558C1240.28 389.981 1243.18 420.345 1274.56 429.543C1305.93 438.742 1325.19 415.527 1331.85 401.738C1332.38 399.926 1335.33 398.822 1336.96 399.957C1338.77 400.487 1339.88 403.434 1338.74 405.069C1331.55 420.669 1309.24 447.581 1272.43 436.791L1271.83 436.614ZM1317.78 375.969C1315.37 375.261 1313.13 373.95 1311.25 371.43C1304.22 364.122 1307.4 353.25 1307.58 352.646L1311.12 340.566C1311.65 338.754 1314 337.473 1315.81 338.003C1317.62 338.534 1318.9 340.877 1318.36 342.689L1314.82 354.769C1314.82 354.769 1312.88 361.413 1316.82 365.848C1318.27 367.586 1320.69 368.294 1323.28 368.398C1324.66 368.147 1326.83 367.47 1328.39 366.616L1343.15 356.512C1346.44 354.2 1354.43 349.325 1361.56 354.04C1368.27 357.975 1369.34 365.503 1367.15 370.762L1363.25 384.05C1362.72 385.862 1360.38 387.144 1358.57 386.613C1356.76 386.082 1355.48 383.74 1356.01 381.928L1359.9 368.64C1360.44 366.828 1360.89 363.027 1357.45 361.361C1353.58 358.915 1347.59 363.717 1347.59 363.717L1332.65 374.425C1330.13 376.31 1327.19 377.414 1323.82 377.738C1321.83 377.811 1319.84 377.885 1318.03 377.354L1317.78 375.969Z" fill="#FFDB00"/>
<path d="M427.789 64.2581C426.294 65.0034 424.246 65.5749 422.213 65.2394C415.544 64.9661 412.31 58.4812 412.13 58.1209L408.537 50.9155C407.998 49.8347 408.58 48.1949 409.702 47.6358C410.823 47.0768 412.483 47.5986 413.022 48.6794L416.615 55.8848C416.615 55.8848 418.591 59.8478 422.479 60.1584C424.333 60.1336 425.827 59.3882 426.963 57.9223C427.531 57.1893 427.725 56.6427 427.739 55.7358L430.707 43.9091C431.124 41.0021 433.064 35.5359 438.641 34.5546C443.664 33.3992 447.509 36.4305 448.752 39.8593L452.704 47.7852C453.243 48.8661 452.661 50.5059 451.54 51.0649C450.419 51.624 448.759 51.1022 448.22 50.0214L444.268 42.0954C443.729 41.0146 442.277 39.0393 439.855 39.7971C436.88 40.381 436.061 45.2881 436.061 45.2881L433.272 57.4751C433.064 58.9286 432.302 60.2082 431.54 61.4877C430.405 62.9537 429.09 64.0593 427.595 64.8047L427.789 64.2581ZM484.338 86.8933C461.543 98.2603 444.533 83.7997 438.382 74.2711C437.843 73.1903 438.051 71.7368 439.366 70.6312C440.487 70.0722 441.968 70.2337 443.06 71.4884C448.313 79.2156 463.124 92.0736 482.556 82.3837C501.988 72.6939 501.183 53.3014 498.366 43.9096C497.827 42.8288 498.783 41.0026 500.084 40.8038C501.205 40.2448 503.045 41.1268 503.21 42.394C506.566 52.8667 507.507 75.34 484.711 86.707L484.338 86.8933ZM480.106 38.17C478.611 38.9154 476.937 39.3005 474.903 38.965C468.234 38.6917 465 32.2068 464.821 31.8465L461.228 24.6411C460.689 23.5603 461.271 21.9204 462.392 21.3614C463.513 20.8024 465.173 21.3242 465.712 22.405L469.305 29.6104C469.305 29.6104 471.281 33.5734 475.169 33.884C476.649 34.0455 478.144 33.3001 479.459 32.1945C480.027 31.4615 480.789 30.1819 481.177 29.0887L483.951 17.8086C484.548 15.2618 486.308 9.43544 491.885 8.45405C496.908 7.29874 500.753 10.33 501.996 13.7588L505.948 21.6847C506.487 22.7656 505.905 24.4054 504.784 24.9644C503.663 25.5235 502.003 25.0017 501.464 23.9209L497.512 15.9949C496.973 14.9141 495.521 12.9388 493.099 13.6966C490.124 14.2805 489.305 19.1876 489.305 19.1876L486.71 30.828C486.308 32.8281 485.352 34.6543 483.843 36.3065C482.901 37.2258 481.96 38.1451 480.839 38.7042L480.106 38.17Z" fill="#FFDB00"/>
<path d="M405.5 1029C394.182 1029 382.864 1034.03 375.318 1041.58C367.773 1049.12 362.742 1060.44 362.742 1071.76C362.742 1083.08 367.773 1094.39 375.318 1101.94C382.864 1109.48 394.182 1114.52 405.5 1114.52C416.818 1114.52 428.136 1109.48 435.682 1101.94C443.227 1094.39 448.257 1083.08 448.257 1071.76C448.257 1060.44 443.227 1049.12 435.682 1041.58C428.136 1034.03 416.818 1029 405.5 1029ZM405.5 1127.09C390.409 1127.09 376.576 1120.8 366.515 1110.74C356.454 1100.68 350.167 1086.85 350.167 1071.76C350.167 1056.67 356.454 1042.83 366.515 1032.77C376.576 1022.71 390.409 1016.42 405.5 1016.42C420.591 1016.42 434.424 1022.71 444.485 1032.77C454.545 1042.83 460.833 1056.67 460.833 1071.76C460.833 1086.85 454.545 1100.68 444.485 1110.74C434.424 1120.8 420.591 1127.09 405.5 1127.09ZM405.5 1001.33C401.727 1001.33 399.212 998.818 399.212 995.045V952.288C399.212 948.515 401.727 946 405.5 946C409.273 946 411.788 948.515 411.788 952.288V995.045C411.788 998.818 409.273 1001.33 405.5 1001.33ZM405.5 1195C401.727 1195 399.212 1192.48 399.212 1188.71V1145.95C399.212 1142.18 401.727 1139.67 405.5 1139.67C409.273 1139.67 411.788 1142.18 411.788 1145.95V1188.71C411.788 1192.48 409.273 1195 405.5 1195ZM523.712 1076.79H480.954C477.182 1076.79 474.667 1074.27 474.667 1070.5C474.667 1066.73 477.182 1064.21 480.954 1064.21H523.712C527.485 1064.21 530 1066.73 530 1070.5C530 1074.27 527.485 1076.79 523.712 1076.79ZM330.045 1076.79H287.288C283.515 1076.79 281 1074.27 281 1070.5C281 1066.73 283.515 1064.21 287.288 1064.21H330.045C333.818 1064.21 336.333 1066.73 336.333 1070.5C336.333 1074.27 333.818 1076.79 330.045 1076.79ZM488.5 1161.05C487.242 1161.05 485.985 1161.05 484.727 1159.79L454.545 1129.61C452.03 1127.09 452.03 1123.32 454.545 1122.06C457.06 1119.55 460.833 1119.55 462.091 1122.06L492.273 1152.24C494.788 1154.76 494.788 1158.53 492.273 1159.79C491.015 1161.05 489.757 1161.05 488.5 1161.05ZM351.424 1023.97C350.167 1023.97 348.909 1023.97 347.651 1022.71L317.47 992.53C314.954 990.015 314.954 986.242 317.47 984.985C319.985 982.47 323.757 982.47 325.015 984.985L355.197 1015.17C357.712 1017.68 357.712 1021.45 355.197 1022.71C353.939 1023.97 352.682 1023.97 351.424 1023.97ZM321.242 1161.05C319.985 1161.05 318.727 1161.05 317.47 1159.79C314.954 1157.27 314.954 1153.5 317.47 1152.24L347.651 1122.06C350.167 1119.55 353.939 1119.55 355.197 1122.06C357.712 1124.58 357.712 1128.35 355.197 1129.61L325.015 1159.79C323.757 1161.05 322.5 1161.05 321.242 1161.05ZM458.318 1023.97C457.06 1023.97 455.803 1023.97 454.545 1022.71C452.03 1020.2 452.03 1016.42 454.545 1015.17L484.727 984.985C487.242 982.47 491.015 982.47 492.273 984.985C494.788 987.5 494.788 991.273 492.273 992.53L462.091 1022.71C460.833 1023.97 459.576 1023.97 458.318 1023.97Z" fill="#FFDB00"/>
<path d="M521 305C515.545 305 510.091 307.424 506.455 311.061C502.818 314.697 500.394 320.152 500.394 325.606C500.394 331.061 502.818 336.515 506.455 340.152C510.091 343.788 515.545 346.212 521 346.212C526.455 346.212 531.909 343.788 535.545 340.152C539.182 336.515 541.606 331.061 541.606 325.606C541.606 320.152 539.182 314.697 535.545 311.061C531.909 307.424 526.455 305 521 305ZM521 352.273C513.727 352.273 507.061 349.242 502.212 344.394C497.364 339.545 494.333 332.879 494.333 325.606C494.333 318.333 497.364 311.667 502.212 306.818C507.061 301.97 513.727 298.939 521 298.939C528.273 298.939 534.939 301.97 539.788 306.818C544.636 311.667 547.667 318.333 547.667 325.606C547.667 332.879 544.636 339.545 539.788 344.394C534.939 349.242 528.273 352.273 521 352.273ZM521 291.667C519.182 291.667 517.97 290.455 517.97 288.636V268.03C517.97 266.212 519.182 265 521 265C522.818 265 524.03 266.212 524.03 268.03V288.636C524.03 290.455 522.818 291.667 521 291.667ZM521 385C519.182 385 517.97 383.788 517.97 381.97V361.364C517.97 359.545 519.182 358.333 521 358.333C522.818 358.333 524.03 359.545 524.03 361.364V381.97C524.03 383.788 522.818 385 521 385ZM577.97 328.03H557.364C555.545 328.03 554.333 326.818 554.333 325C554.333 323.182 555.545 321.97 557.364 321.97H577.97C579.788 321.97 581 323.182 581 325C581 326.818 579.788 328.03 577.97 328.03ZM484.636 328.03H464.03C462.212 328.03 461 326.818 461 325C461 323.182 462.212 321.97 464.03 321.97H484.636C486.455 321.97 487.667 323.182 487.667 325C487.667 326.818 486.455 328.03 484.636 328.03ZM561 368.636C560.394 368.636 559.788 368.636 559.182 368.03L544.636 353.485C543.424 352.273 543.424 350.455 544.636 349.848C545.848 348.636 547.667 348.636 548.273 349.848L562.818 364.394C564.03 365.606 564.03 367.424 562.818 368.03C562.212 368.636 561.606 368.636 561 368.636ZM494.939 302.576C494.333 302.576 493.727 302.576 493.121 301.97L478.576 287.424C477.364 286.212 477.364 284.394 478.576 283.788C479.788 282.576 481.606 282.576 482.212 283.788L496.758 298.333C497.97 299.545 497.97 301.364 496.758 301.97C496.152 302.576 495.545 302.576 494.939 302.576ZM480.394 368.636C479.788 368.636 479.182 368.636 478.576 368.03C477.364 366.818 477.364 365 478.576 364.394L493.121 349.848C494.333 348.636 496.152 348.636 496.758 349.848C497.97 351.061 497.97 352.879 496.758 353.485L482.212 368.03C481.606 368.636 481 368.636 480.394 368.636ZM546.455 302.576C545.848 302.576 545.242 302.576 544.636 301.97C543.424 300.758 543.424 298.939 544.636 298.333L559.182 283.788C560.394 282.576 562.212 282.576 562.818 283.788C564.03 285 564.03 286.818 562.818 287.424L548.273 301.97C547.667 302.576 547.061 302.576 546.455 302.576Z" fill="#FFDB00"/>
<path d="M133.791 580.243L218.784 556.161L204.111 475.354L212.99 472.838C264.451 460.997 299.463 434.632 315.975 420.361C318.153 418.374 319.062 416.746 319.612 413.849C320.162 410.953 318.174 408.775 316.187 406.597C314.199 404.42 310.034 404.229 306.229 405.308C280.667 416.661 219.777 433.914 135.524 450.935C104.36 457.024 80.9341 485.588 81.5898 516.921L84.3178 594.261L107.152 587.791L103.536 502.48L135.06 579.883L133.791 580.243ZM345.639 520.217L374.816 511.95L332.044 443.216C299.738 474.296 250.984 490.851 238.298 494.445L247.961 547.894L321.537 527.046L306.081 472.499L346.908 519.858L345.639 520.217ZM384.034 520.301L345.978 531.084C343.441 531.803 340.544 531.254 338.557 529.076L328.619 518.188L331.495 528.336C332.573 532.142 330.755 535.398 326.949 536.476L245.762 559.48C243.225 560.199 241.597 559.289 239.969 558.38C238.341 557.471 236.354 555.294 237.263 553.666L226.712 492.246C225.634 488.441 228.721 484.825 231.258 484.107C231.258 484.107 293.417 466.494 328.45 430.53C329.359 428.903 331.896 428.184 334.792 428.733C336.42 429.642 339.317 430.192 339.676 431.461L389.129 509.265C389.848 511.802 390.208 513.071 389.658 515.967C388.749 517.595 386.571 519.582 385.303 519.942L384.034 520.301ZM231.214 338.857C214.723 343.53 205.632 359.81 210.305 376.301C214.977 392.792 231.257 401.883 247.748 397.21C264.239 392.538 273.331 376.258 268.658 359.767C263.985 343.276 247.705 334.184 231.214 338.857ZM250.624 407.359C229.058 413.469 206.266 400.742 200.156 379.176C194.046 357.611 206.773 334.819 228.339 328.709C249.904 322.598 272.696 335.326 278.806 356.891C284.917 378.457 272.189 401.249 250.624 407.359ZM123.239 354.377C104.211 359.768 93.3016 379.304 98.6931 398.332C104.085 417.361 123.62 428.27 142.649 422.878C161.677 417.487 172.586 397.951 167.195 378.923C161.803 359.895 142.268 348.985 123.239 354.377ZM145.524 433.027C121.422 439.856 95.374 425.31 88.5447 401.208C81.7155 377.105 96.2613 351.058 120.364 344.228C144.466 337.399 170.514 351.945 177.343 376.047C184.173 400.15 169.627 426.198 145.524 433.027ZM225.825 566.499L133.221 592.738C129.415 593.816 126.159 591.998 125.081 588.192L116.793 568.614L117.469 590.349C116.92 593.245 115.101 596.501 112.564 597.22L82.1191 605.847C79.582 606.566 77.954 605.656 76.326 604.747C74.698 603.838 73.9791 601.301 73.2603 598.764L70.3631 515.991C70.8067 478.865 97.3192 446.685 133.558 439.158C217.811 422.138 276.523 406.872 302.085 395.519C309.336 392.093 318.026 393.743 323.629 399.007C327.604 403.362 330.31 408.077 330.839 414.779C331.008 420.213 328.64 426.365 324.285 430.34C306.863 446.24 270.583 472.964 217.853 485.164L230.73 559.628C231.808 563.433 228.721 567.049 226.184 567.768L225.825 566.499Z" fill="#5BB194"/>
<path d="M566.538 1407.87L642.002 1411.23L651.701 1345.47L659.585 1345.82C704.544 1349.95 740.029 1338.72 757.256 1332.02C759.556 1331.05 760.73 1330.04 761.951 1327.96C763.172 1325.87 762.141 1323.69 761.109 1321.51C760.078 1319.33 756.746 1318.12 753.367 1317.96C729.572 1320.11 675.508 1317.7 602.534 1309.12C575.597 1305.78 548.932 1321.68 541.084 1345.88L522.611 1405.91L542.885 1406.81L562.768 1340.44L567.664 1407.92L566.538 1407.87ZM754.635 1416.24L780.541 1417.39L764.192 1353.68C729.643 1369.22 685.621 1369.4 674.358 1368.9L667.908 1412.38L733.235 1415.29L735.275 1369.47L755.762 1416.29L754.635 1416.24ZM785.793 1426.17L752.003 1424.66C749.751 1424.56 747.545 1423.4 746.514 1421.22L741.357 1410.31L740.977 1418.84C740.835 1422.03 738.487 1424.06 735.108 1423.91L663.023 1420.7C660.77 1420.6 659.692 1419.49 658.613 1418.37C657.534 1417.26 656.502 1415.07 657.676 1414.06L665.537 1364.23C665.679 1361.04 669.153 1359.06 671.406 1359.16C671.406 1359.16 726.596 1361.61 764.666 1343.02C765.84 1342.01 768.093 1342.11 770.298 1343.27C771.377 1344.39 773.582 1345.55 773.534 1346.62L792.883 1419.01C792.788 1421.14 792.741 1422.21 791.52 1424.29C790.346 1425.3 788.046 1426.27 786.919 1426.22L785.793 1426.17ZM710.224 1247.72C695.581 1247.07 683.844 1257.22 683.227 1271.07C682.61 1284.92 693.399 1296.08 708.042 1296.73C722.684 1297.38 734.422 1287.23 735.038 1273.38C735.655 1259.53 724.866 1248.37 710.224 1247.72ZM707.662 1305.25C688.515 1304.4 673.41 1288.78 674.216 1270.67C675.023 1252.56 691.455 1238.34 710.603 1239.19C729.751 1240.05 744.855 1255.67 744.049 1273.78C743.243 1291.89 726.81 1306.11 707.662 1305.25ZM618.386 1231.89C601.491 1231.13 587.406 1243.32 586.695 1259.3C585.983 1275.28 598.93 1288.67 615.825 1289.42C632.72 1290.17 646.805 1277.99 647.517 1262.01C648.228 1246.03 635.281 1232.64 618.386 1231.89ZM615.445 1297.95C594.045 1296.99 576.783 1279.14 577.684 1258.9C578.585 1238.66 597.365 1222.41 618.766 1223.36C640.166 1224.31 657.428 1242.17 656.527 1262.41C655.626 1282.65 636.846 1298.9 615.445 1297.95ZM644.954 1420.97L562.732 1417.31C559.353 1417.16 557.195 1414.92 557.338 1411.73L555.844 1394.58L550.58 1411.43C549.359 1413.51 547.011 1415.54 544.758 1415.44L517.726 1414.23C515.474 1414.13 514.395 1413.02 513.316 1411.9C512.237 1410.79 512.332 1408.66 512.427 1406.53L532.215 1342.28C542.507 1313.92 572.645 1296.04 604.087 1299.58C677.062 1308.16 728.825 1311.53 752.621 1309.39C759.426 1308.63 766.042 1312.12 769.184 1317.6C771.246 1321.96 772.183 1326.28 770.82 1331.55C769.504 1335.76 765.935 1339.88 761.335 1341.81C742.934 1349.53 706.322 1360.71 660.237 1356.52L650.776 1416.95C650.633 1420.15 647.16 1422.13 644.907 1422.03L644.954 1420.97Z" fill="#5BB194"/>
<path d="M1333.54 757.107L1364.72 765.623L1374.96 739.103L1378.22 739.993C1396.6 745.957 1412.47 744.617 1420.29 743.443C1421.34 743.257 1421.92 742.945 1422.63 742.192C1423.34 741.439 1423.11 740.431 1422.89 739.424C1422.66 738.417 1421.38 737.596 1419.99 737.214C1409.85 735.865 1387.52 729.764 1357.87 719.302C1346.94 715.372 1334.31 719.489 1328.76 728.847L1315.39 752.15L1323.77 754.437L1338.32 728.622L1334.01 757.234L1333.54 757.107ZM1411.26 778.333L1421.96 781.256L1421.14 753.134C1405.26 756.361 1386.87 752.284 1382.21 751.013L1375.42 768.546L1402.42 775.918L1407.58 756.997L1411.72 778.46L1411.26 778.333ZM1423.33 785.412L1409.37 781.599C1408.44 781.345 1407.63 780.65 1407.4 779.643L1406.28 774.607L1405.31 778.128C1404.95 779.448 1403.78 780.074 1402.39 779.692L1372.6 771.558C1371.67 771.304 1371.33 770.736 1370.98 770.169C1370.64 769.602 1370.41 768.595 1371 768.282L1378.97 748.236C1379.33 746.916 1380.97 746.417 1381.9 746.671C1381.9 746.671 1404.7 752.899 1422.34 748.733C1422.93 748.42 1423.86 748.675 1424.67 749.369C1425.02 749.936 1425.83 750.63 1425.71 751.07L1426.96 783.094C1426.72 783.975 1426.6 784.415 1425.9 785.167C1425.31 785.48 1424.26 785.666 1423.79 785.539L1423.33 785.412ZM1408.6 703.841C1402.55 702.189 1396.69 705.318 1395.13 711.038C1393.57 716.759 1397.02 722.43 1403.07 724.083C1409.12 725.735 1414.98 722.606 1416.54 716.885C1418.1 711.165 1414.65 705.493 1408.6 703.841ZM1402.11 727.603C1394.2 725.442 1389.37 717.502 1391.41 710.022C1393.45 702.541 1401.65 698.16 1409.56 700.321C1417.47 702.482 1422.31 710.422 1420.26 717.902C1418.22 725.383 1410.02 729.764 1402.11 727.603ZM1371.76 688.578C1364.78 686.672 1357.75 690.427 1355.95 697.027C1354.15 703.628 1358.29 710.433 1365.27 712.34C1372.25 714.247 1379.28 710.491 1381.08 703.891C1382.88 697.29 1378.74 690.485 1371.76 688.578ZM1364.31 715.86C1355.47 713.445 1349.94 704.371 1352.23 696.011C1354.51 687.65 1363.88 682.643 1372.72 685.058C1381.56 687.473 1387.09 696.547 1384.8 704.908C1382.52 713.268 1373.15 718.275 1364.31 715.86ZM1365.04 769.964L1331.06 760.686C1329.67 760.304 1328.98 759.17 1329.34 757.85L1330.33 750.555L1326.54 757.087C1325.84 757.84 1324.67 758.466 1323.74 758.212L1312.57 755.161C1311.64 754.907 1311.29 754.34 1310.95 753.773C1310.6 753.206 1310.84 752.326 1311.08 751.446L1325.39 726.51C1332.36 715.646 1346.62 711.03 1359.41 715.469C1389.06 725.931 1410.35 732.218 1420.48 733.567C1423.4 733.89 1425.83 735.972 1426.62 738.554C1427.07 740.568 1427.06 742.455 1425.99 744.528C1425.05 746.162 1423.17 747.54 1421.07 747.912C1412.66 749.399 1396.33 750.612 1377.49 744.52L1367.84 768.839C1367.48 770.16 1365.85 770.658 1364.91 770.404L1365.04 769.964Z" fill="#5BB194"/>
<path d="M784.54 136.107L815.721 144.623L825.964 118.103L829.222 118.993C847.597 124.957 863.466 123.617 871.288 122.443C872.339 122.257 872.924 121.945 873.63 121.192C874.336 120.439 874.111 119.431 873.886 118.424C873.661 117.417 872.385 116.596 870.989 116.214C860.855 114.865 838.517 108.764 808.868 98.3025C797.939 94.3719 785.312 98.489 779.756 107.847L766.39 131.15L774.767 133.437L789.319 107.622L785.005 136.234L784.54 136.107ZM862.259 157.333L872.963 160.256L872.142 132.134C856.257 135.361 837.867 131.284 833.213 130.013L826.424 147.546L853.417 154.918L858.584 135.997L862.724 157.46L862.259 157.333ZM874.328 164.412L860.367 160.599C859.436 160.345 858.625 159.65 858.4 158.643L857.275 153.607L856.314 157.128C855.953 158.448 854.782 159.074 853.386 158.692L823.601 150.558C822.671 150.304 822.326 149.736 821.98 149.169C821.635 148.602 821.41 147.595 821.996 147.282L829.971 127.236C830.332 125.916 831.968 125.417 832.899 125.671C832.899 125.671 855.703 131.899 873.344 127.733C873.929 127.42 874.86 127.675 875.671 128.369C876.016 128.936 876.826 129.63 876.706 130.07L877.962 162.094C877.721 162.975 877.601 163.415 876.895 164.167C876.31 164.48 875.259 164.666 874.793 164.539L874.328 164.412ZM859.599 82.8411C853.549 81.1888 847.694 84.3181 846.131 90.0385C844.569 95.7589 848.021 101.43 854.071 103.083C860.121 104.735 865.977 101.606 867.539 95.8853C869.101 90.1648 865.649 84.4935 859.599 82.8411ZM853.11 106.603C845.198 104.442 840.365 96.5022 842.408 89.0217C844.452 81.5411 852.649 77.1601 860.561 79.3209C868.472 81.4817 873.305 89.4215 871.262 96.9021C869.219 104.383 861.021 108.764 853.11 106.603ZM822.76 67.5783C815.779 65.6717 808.753 69.4269 806.95 76.0273C805.147 82.6278 809.29 89.4334 816.27 91.34C823.251 93.2466 830.278 89.4914 832.081 82.8909C833.883 76.2905 829.741 69.4848 822.76 67.5783ZM815.309 94.8603C806.467 92.4453 800.943 83.3711 803.227 75.0105C805.51 66.6499 814.879 61.6431 823.722 64.058C832.564 66.473 838.087 75.5472 835.804 83.9078C833.52 92.2684 824.151 97.2752 815.309 94.8603ZM816.035 148.964L782.062 139.686C780.666 139.304 779.976 138.17 780.336 136.85L781.328 129.555L777.544 136.087C776.838 136.84 775.667 137.466 774.736 137.212L763.567 134.161C762.636 133.907 762.291 133.34 761.946 132.773C761.601 132.206 761.841 131.326 762.082 130.446L776.393 105.51C783.361 94.6462 797.624 90.0303 810.415 94.4693C840.064 104.931 861.351 111.218 871.485 112.567C874.397 112.89 876.829 114.972 877.624 117.554C878.074 119.568 878.059 121.455 876.992 123.528C876.046 125.162 874.17 126.54 872.068 126.912C863.66 128.399 847.326 129.612 828.485 123.52L818.843 147.839C818.482 149.16 816.846 149.658 815.915 149.404L816.035 148.964Z" fill="#5BB194"/>
</svg>
