<?xml version="1.0" encoding="UTF-8"?>
<!DOCTYPE svg PUBLIC "-//W3C//DTD SVG 1.0//EN" "http://www.w3.org/TR/2001/REC-SVG-20010904/DTD/svg10.dtd">
<!-- Creator: CorelDRAW X6 -->
<svg xmlns="http://www.w3.org/2000/svg" xml:space="preserve" width="22.9044mm" height="22.9045mm" version="1.0" style="shape-rendering:geometricPrecision; text-rendering:geometricPrecision; image-rendering:optimizeQuality; fill-rule:evenodd; clip-rule:evenodd"
viewBox="0 0 844 844"
 xmlns:xlink="http://www.w3.org/1999/xlink">
 <defs>
  <style type="text/css">
   <![CDATA[
    .fil0 {fill:#FEFEFE;fill-rule:nonzero}
   ]]>
  </style>
 </defs>
 <g id="Layer_x0020_1">
  <metadata id="CorelCorpID_0Corel-Layer"/>
  <path class="fil0" d="M422 40c-105,0 -201,43 -270,112 -69,69 -112,164 -112,270 0,105 43,201 112,270 69,69 164,112 270,112 105,0 201,-43 270,-112 69,-69 112,-164 112,-270 0,-105 -43,-201 -112,-270 -69,-69 -164,-112 -270,-112zm24 205c12,-12 31,-12 43,0 12,12 12,31 0,43l-137 137 137 137c12,12 12,31 0,43 -12,12 -31,12 -43,0l-159 -159c-12,-12 -12,-31 0,-43l159 -159zm-322 -122c76,-76 182,-124 298,-124 116,0 222,47 298,124 76,76 124,182 124,298 0,116 -47,222 -124,298 -76,76 -182,124 -298,124 -116,0 -222,-47 -298,-124 -76,-76 -124,-182 -124,-298 0,-116 47,-222 124,-298z"/>
 </g>
</svg>
