<?xml version="1.0" encoding="UTF-8"?>
<!DOCTYPE svg PUBLIC "-//W3C//DTD SVG 1.0//EN" "http://www.w3.org/TR/2001/REC-SVG-20010904/DTD/svg10.dtd">
<!-- Creator: CorelDRAW X6 -->
<svg xmlns="http://www.w3.org/2000/svg" xml:space="preserve" width="22.9044mm" height="22.9045mm" version="1.0" style="shape-rendering:geometricPrecision; text-rendering:geometricPrecision; image-rendering:optimizeQuality; fill-rule:evenodd; clip-rule:evenodd"
viewBox="0 0 918 918"
 xmlns:xlink="http://www.w3.org/1999/xlink">
 <defs>
  <style type="text/css">
   <![CDATA[
    .fil0 {fill:#FEFEFE;fill-rule:nonzero}
   ]]>
  </style>
 </defs>
 <g id="Layer_x0020_1">
  <metadata id="CorelCorpID_0Corel-Layer"/>
  <path class="fil0" d="M459 0c127,0 242,51 325,134 83,83 134,198 134,325 0,127 -51,242 -134,325 -83,83 -198,134 -325,134 -127,0 -242,-51 -325,-134 -83,-83 -134,-198 -134,-325 0,-127 51,-242 134,-325 83,-83 198,-134 325,-134zm-73 313c-13,-13 -13,-34 0,-47 13,-13 34,-13 47,0l173 173c13,13 13,34 0,47l-173 173c-13,13 -34,13 -47,0 -13,-13 -13,-34 0,-47l149 -149 -149 -149zm366 -148c-75,-75 -179,-122 -293,-122 -115,0 -218,46 -293,122 -75,75 -122,179 -122,293 0,115 46,218 122,293 75,75 179,122 293,122 115,0 218,-46 293,-122 75,-75 122,-179 122,-293 0,-115 -46,-218 -122,-293z"/>
 </g>
</svg>
