<?xml version="1.0" encoding="UTF-8"?>
<!DOCTYPE svg PUBLIC "-//W3C//DTD SVG 1.0//EN" "http://www.w3.org/TR/2001/REC-SVG-20010904/DTD/svg10.dtd">
<!-- Creator: CorelDRAW X6 -->
<svg xmlns="http://www.w3.org/2000/svg" xml:space="preserve" width="110.436mm" height="81.6181mm" version="1.0" style="shape-rendering:geometricPrecision; text-rendering:geometricPrecision; image-rendering:optimizeQuality; fill-rule:evenodd; clip-rule:evenodd"
viewBox="0 0 12572 9292"
 xmlns:xlink="http://www.w3.org/1999/xlink">
 <defs>
  <style type="text/css">
   <![CDATA[
    .fil0 {fill:#5BB194;fill-rule:nonzero}
   ]]>
  </style>
 </defs>
 <g id="Layer_x0020_1">
  <metadata id="CorelCorpID_0Corel-Layer"/>
  <path class="fil0" d="M7208 6666l0 1m-4754 2193l3381 0 318 -3129 349 22c2008,117 3585,-481 4346,-849 89,-43 155,-122 181,-218 26,-98 10,-203 -47,-287 -75,-112 -209,-171 -346,-150 -1063,174 -3465,130 -6764,-123 -1210,-88 -2349,694 -2699,1860l-699 2875 891 0 734 -3157 353 3157zm4594 -2050l0 0zm3854 2050l1184 0 -883 -2976c-1505,784 -3466,904 -4010,922l-219 2053 2915 0 0 -2189 1013 2189zm-3946 174l0 4c0,-1 0,-3 0,-4zm5191 32c0,1 0,1 0,2l0 -2zm153 226l-1500 0c-105,0 -202,-62 -246,-157l-233 -504 0 389c0,150 -122,272 -272,272l-3253 0c-77,0 -150,-32 -202,-89 -53,-59 -78,-136 -68,-214l252 -2368c14,-139 130,-243 269,-243 24,0 2456,-15 4118,-965 74,-42 162,-48 240,-15 75,31 131,94 155,173l1001 3371c24,81 9,171 -43,239 -51,69 -133,110 -218,110zm-3752 -8300c-637,0 -1155,518 -1155,1156 0,637 518,1155 1155,1155 637,0 1156,-518 1156,-1155 0,-638 -518,-1156 -1156,-1156zm0 2742c-875,0 -1587,-712 -1587,-1587 0,-875 712,-1587 1587,-1587 875,0 1587,712 1587,1587 0,875 -712,1587 -1587,1587zm-4127 -3302c-739,0 -1340,601 -1340,1340 0,739 601,1341 1340,1341 739,0 1340,-602 1340,-1341 0,-739 -601,-1340 -1340,-1340zm0 3113c-977,0 -1772,-795 -1772,-1773 0,-977 795,-1772 1772,-1772 977,0 1772,795 1772,1772 0,977 -795,1773 -1772,1773zm-3083 5440c0,0 -1,1 -1,1l1 -1zm4482 20c0,0 0,1 0,2l0 -2zm160 288l-3670 0c-138,0 -254,-104 -269,-242l-89 -798 -193 830c-28,123 -136,209 -264,209l-1223 0c-84,0 -162,-38 -214,-105 -51,-66 -69,-149 -51,-229l751 -3087c411,-1370 1732,-2286 3148,-2177 3266,251 5631,296 6663,128 302,-47 605,85 773,337 125,188 163,421 104,639l-1 1c-59,215 -208,395 -409,492 -791,383 -2418,1002 -4497,896l-290 2861c-13,138 -129,244 -270,244z"/>
 </g>
</svg>
