<?xml version="1.0" encoding="UTF-8"?>
<!DOCTYPE svg PUBLIC "-//W3C//DTD SVG 1.0//EN" "http://www.w3.org/TR/2001/REC-SVG-20010904/DTD/svg10.dtd">
<!-- Creator: CorelDRAW X6 -->
<svg xmlns="http://www.w3.org/2000/svg" xml:space="preserve" width="23.3589mm" height="23.3588mm" version="1.0" style="shape-rendering:geometricPrecision; text-rendering:geometricPrecision; image-rendering:optimizeQuality; fill-rule:evenodd; clip-rule:evenodd"
viewBox="0 0 955 955"
 xmlns:xlink="http://www.w3.org/1999/xlink">
 <defs>
  <style type="text/css">
   <![CDATA[
    .fil1 {fill:#322B7C}
    .fil0 {fill:white}
   ]]>
  </style>
 </defs>
 <g id="Layer_x0020_1">
  <metadata id="CorelCorpID_0Corel-Layer"/>
  <g id="_790882528">
   <circle class="fil0" cx="478" cy="478" r="478"/>
   <path class="fil1" d="M648 297c0,0 47,-18 43,26 -1,18 -13,82 -22,150l-31 203c0,0 -3,30 -26,35 -23,5 -58,-18 -65,-23 -5,-4 -97,-62 -129,-91 -9,-8 -19,-23 1,-41l136 -130c16,-16 31,-52 -34,-8l-181 123c0,0 -21,13 -59,1l-84 -26c0,0 -31,-19 22,-39 129,-61 288,-123 429,-181z"/>
  </g>
 </g>
</svg>
