<?xml version="1.0" encoding="UTF-8"?>
<!DOCTYPE svg PUBLIC "-//W3C//DTD SVG 1.0//EN" "http://www.w3.org/TR/2001/REC-SVG-20010904/DTD/svg10.dtd">
<!-- Creator: CorelDRAW X6 -->
<svg xmlns="http://www.w3.org/2000/svg" xml:space="preserve" width="107.682mm" height="92.1183mm" version="1.0" style="shape-rendering:geometricPrecision; text-rendering:geometricPrecision; image-rendering:optimizeQuality; fill-rule:evenodd; clip-rule:evenodd"
viewBox="0 0 11946 10219"
 xmlns:xlink="http://www.w3.org/1999/xlink">
 <defs>
  <style type="text/css">
   <![CDATA[
    .fil0 {fill:#FFDB00;fill-rule:nonzero}
   ]]>
  </style>
 </defs>
 <g id="Layer_x0020_1">
  <metadata id="CorelCorpID_0Corel-Layer"/>
  <path class="fil0" d="M5973 323c-12,0 -24,4 -34,13l-5600 5013c-15,14 -21,37 -14,56 8,19 27,32 48,32l1833 0 0 4408c0,28 23,51 51,51l7431 0c28,0 51,-23 51,-51l0 -4408 1833 0c21,0 40,-13 48,-33 8,-20 2,-42 -14,-56l-5600 -5013c-9,-9 -21,-13 -34,-13zm3715 9896l-7431 0c-206,0 -374,-168 -374,-374l0 -4085 -1510 0c-154,0 -295,-97 -349,-241 -55,-144 -15,-309 100,-412l5600 -5013c142,-127 357,-127 499,0l5600 5013c114,103 155,268 100,412 -55,144 -195,240 -349,240l-1510 0 0 4085c0,206 -168,374 -374,374zm-4537 -6425c-34,0 -68,1 -102,5 -325,33 -595,238 -723,549 -135,328 -80,698 143,967l1489 1802c19,23 59,23 78,0l1488 -1802c223,-269 278,-640 143,-967 -127,-311 -398,-516 -724,-549 -304,-31 -616,76 -836,285l-111 106 -111 -106c-195,-185 -464,-290 -735,-290zm846 3665c-112,0 -217,-50 -288,-136l-1489 -1802c-299,-361 -373,-858 -193,-1296 174,-423 544,-702 990,-748 348,-34 705,69 980,278 276,-210 632,-313 979,-278 447,45 816,325 990,748 180,438 106,935 -193,1296l-1488 1802c-72,86 -177,136 -288,136z"/>
 </g>
</svg>
