<?xml version="1.0" encoding="UTF-8"?>
<!DOCTYPE svg PUBLIC "-//W3C//DTD SVG 1.0//EN" "http://www.w3.org/TR/2001/REC-SVG-20010904/DTD/svg10.dtd">
<!-- Creator: CorelDRAW X6 -->
<svg xmlns="http://www.w3.org/2000/svg" xml:space="preserve" width="23.3589mm" height="23.3588mm" version="1.0" style="shape-rendering:geometricPrecision; text-rendering:geometricPrecision; image-rendering:optimizeQuality; fill-rule:evenodd; clip-rule:evenodd"
viewBox="0 0 974 974"
 xmlns:xlink="http://www.w3.org/1999/xlink">
 <defs>
  <style type="text/css">
   <![CDATA[
    .fil1 {fill:#322B7C}
    .fil0 {fill:white}
   ]]>
  </style>
 </defs>
 <g id="Layer_x0020_1">
  <metadata id="CorelCorpID_0Corel-Layer"/>
  <g id="_790875968">
   <circle class="fil0" cx="487" cy="487" r="487"/>
   <g>
    <g id="Page-1">
     <g id="Dribbble-Light-Preview">
      <g id="icons">
       <path id="youtube-_x005b__x0023_168_x005d_" class="fil1" d="M426 566l0 -172c61,29 108,56 164,86 -46,26 -103,54 -164,86m340 -257c-11,-14 -28,-25 -48,-28 -56,-11 -406,-11 -463,0 -15,3 -29,10 -41,21 -49,46 -34,292 -22,331 5,17 11,30 20,38 10,11 25,18 41,22 46,10 284,15 463,1 16,-3 31,-11 43,-22 46,-46 43,-305 6,-363z"/>
      </g>
     </g>
    </g>
   </g>
  </g>
 </g>
</svg>
