<?xml version="1.0" encoding="UTF-8"?>
<!DOCTYPE svg PUBLIC "-//W3C//DTD SVG 1.0//EN" "http://www.w3.org/TR/2001/REC-SVG-20010904/DTD/svg10.dtd">
<!-- Creator: CorelDRAW X6 -->
<svg xmlns="http://www.w3.org/2000/svg" xml:space="preserve" width="23.3591mm" height="23.559mm" version="1.0" style="shape-rendering:geometricPrecision; text-rendering:geometricPrecision; image-rendering:optimizeQuality; fill-rule:evenodd; clip-rule:evenodd"
viewBox="0 0 984 993"
 xmlns:xlink="http://www.w3.org/1999/xlink">
 <defs>
  <style type="text/css">
   <![CDATA[
    .fil0 {fill:#FEFEFE;fill-rule:nonzero}
   ]]>
  </style>
 </defs>
 <g id="Layer_x0020_1">
  <metadata id="CorelCorpID_0Corel-Layer"/>
  <g id="_790922016">
   <path class="fil0" d="M0 512c111,4 230,-1 332,52 70,36 111,110 125,185 17,80 17,162 19,243 -132,-5 -261,-64 -349,-162 -78,-87 -128,-201 -127,-319z"/>
   <path class="fil0" d="M709 540c90,-25 183,-26 275,-28 -3,126 -57,249 -147,337 -87,88 -208,139 -331,144 2,-103 1,-209 38,-306 27,-72 91,-126 164,-146z"/>
   <path class="fil0" d="M507 0c89,8 179,31 254,82 133,86 221,241 223,400 -98,-3 -199,-2 -293,-34 -68,-24 -125,-78 -149,-147 -35,-96 -34,-200 -36,-301z"/>
   <path class="fil0" d="M195 101c80,-62 181,-95 282,-100 -4,92 -2,186 -28,275 -19,70 -67,132 -133,162 -99,43 -210,40 -316,44 0,-148 77,-293 195,-381z"/>
  </g>
 </g>
</svg>
