<?xml version="1.0" encoding="UTF-8"?>
<!DOCTYPE svg PUBLIC "-//W3C//DTD SVG 1.0//EN" "http://www.w3.org/TR/2001/REC-SVG-20010904/DTD/svg10.dtd">
<!-- Creator: CorelDRAW X6 -->
<svg xmlns="http://www.w3.org/2000/svg" xml:space="preserve" width="23.3589mm" height="23.3588mm" version="1.0" style="shape-rendering:geometricPrecision; text-rendering:geometricPrecision; image-rendering:optimizeQuality; fill-rule:evenodd; clip-rule:evenodd"
viewBox="0 0 965 965"
 xmlns:xlink="http://www.w3.org/1999/xlink">
 <defs>
  <style type="text/css">
   <![CDATA[
    .fil1 {fill:#322B7C}
    .fil0 {fill:white}
   ]]>
  </style>
 </defs>
 <g id="Layer_x0020_1">
  <metadata id="CorelCorpID_0Corel-Layer"/>
  <g id="_900700784">
   <circle class="fil0" cx="482" cy="482" r="482"/>
   <path class="fil1" d="M216 333c4,208 108,333 290,333l11 0 0 -119c67,7 118,56 138,119l95 0c-10,-36 -27,-69 -50,-98 -24,-29 -53,-52 -86,-69 30,-18 56,-42 76,-71 20,-29 34,-61 41,-95l-86 0c-19,66 -74,126 -127,132l0 -131 -86 0 0 230c-53,-13 -120,-78 -123,-230l-92 0z"/>
  </g>
 </g>
</svg>
