<?xml version="1.0" encoding="UTF-8"?>
<!DOCTYPE svg PUBLIC "-//W3C//DTD SVG 1.1//EN" "http://www.w3.org/Graphics/SVG/1.1/DTD/svg11.dtd">
<!-- Creator: CorelDRAW X6 -->
<svg xmlns="http://www.w3.org/2000/svg" xml:space="preserve" width="31.7357mm" height="42.5748mm" version="1.1" style="shape-rendering:geometricPrecision; text-rendering:geometricPrecision; image-rendering:optimizeQuality; fill-rule:evenodd; clip-rule:evenodd"
viewBox="0 0 138 185"
 xmlns:xlink="http://www.w3.org/1999/xlink">
 <defs>
  <style type="text/css">
   <![CDATA[
    .fil0 {fill:#322B7C;fill-rule:nonzero}
    .fil1 {fill:#64C7F3;fill-rule:nonzero}
   ]]>
  </style>
 </defs>
 <g id="Layer_x0020_1">
  <metadata id="CorelCorpID_0Corel-Layer"/>
  <g id="_1038240512">
   <polygon class="fil0" points="0,185 138,185 138,0 0,0 "/>
   <path class="fil1" d="M54 61c-10,0 -18,8 -18,18 0,4 1,8 4,11 1,1 20,22 29,33l29 -33c2,-3 4,-7 4,-11 0,-10 -8,-18 -18,-18 -5,0 -9,2 -13,5l-2 2 -2 -2c-3,-3 -8,-5 -13,-5zm15 69c-2,0 -3,-1 -4,-2 -5,-6 -30,-33 -30,-34 -4,-4 -6,-10 -6,-15 0,-13 11,-24 25,-24 6,0 11,2 15,5 4,-3 10,-5 15,-5 14,0 25,11 25,24 0,6 -2,11 -6,15l-30 34c-1,1 -3,2 -4,2z"/>
  </g>
 </g>
</svg>
