<?xml version="1.0" encoding="UTF-8"?>
<!DOCTYPE svg PUBLIC "-//W3C//DTD SVG 1.1//EN" "http://www.w3.org/Graphics/SVG/1.1/DTD/svg11.dtd">
<!-- Creator: CorelDRAW X6 -->
<svg xmlns="http://www.w3.org/2000/svg" xml:space="preserve" width="75.3097mm" height="42.5748mm" version="1.1" style="shape-rendering:geometricPrecision; text-rendering:geometricPrecision; image-rendering:optimizeQuality; fill-rule:evenodd; clip-rule:evenodd"
viewBox="0 0 616 348"
 xmlns:xlink="http://www.w3.org/1999/xlink">
 <defs>
  <style type="text/css">
   <![CDATA[
    .fil1 {fill:#5BB194;fill-rule:nonzero}
    .fil0 {fill:#FFDB00;fill-rule:nonzero}
   ]]>
  </style>
 </defs>
 <g id="Layer_x0020_1">
  <metadata id="CorelCorpID_0Corel-Layer"/>
  <g id="_1038241600">
   <polygon class="fil0" points="0,348 616,348 616,0 0,0 "/>
   <path class="fil1" d="M316 211l0 0m-94 43l67 0 6 -62 7 0c40,2 71,-10 86,-17 2,-1 3,-2 4,-4 1,-2 0,-4 -1,-6 -1,-2 -4,-3 -7,-3 -21,3 -69,3 -134,-2 -24,-2 -47,14 -53,37l-14 57 18 0 15 -63 7 63zm91 -41l0 0zm76 41l23 0 -17 -59c-30,16 -69,18 -79,18l-4 41 58 0 0 -43 20 43zm-78 3l0 0c0,0 0,0 0,0zm103 1c0,0 0,0 0,0l0 0zm3 4l-30 0c-2,0 -4,-1 -5,-3l-5 -10 0 8c0,3 -2,5 -5,5l-64 0c-2,0 -3,-1 -4,-2 -1,-1 -2,-3 -1,-4l5 -47c0,-3 3,-5 5,-5 0,0 49,0 82,-19 1,-1 3,-1 5,0 1,1 3,2 3,3l20 67c0,2 0,3 -1,5 -1,1 -3,2 -4,2zm-74 -164c-13,0 -23,10 -23,23 0,13 10,23 23,23 13,0 23,-10 23,-23 0,-13 -10,-23 -23,-23zm0 54c-17,0 -31,-14 -31,-31 0,-17 14,-31 31,-31 17,0 31,14 31,31 0,17 -14,31 -31,31zm-82 -65c-15,0 -27,12 -27,27 0,15 12,27 27,27 15,0 27,-12 27,-27 0,-15 -12,-27 -27,-27zm0 62c-19,0 -35,-16 -35,-35 0,-19 16,-35 35,-35 19,0 35,16 35,35 0,19 -16,35 -35,35zm-61 108c0,0 0,0 0,0l0 0zm89 0c0,0 0,0 0,0l0 0zm3 6l-73 0c-3,0 -5,-2 -5,-5l-2 -16 -4 16c-1,2 -3,4 -5,4l-24 0c-2,0 -3,-1 -4,-2 -1,-1 -1,-3 -1,-5l15 -61c8,-27 34,-45 62,-43 65,5 111,6 132,3 6,-1 12,2 15,7 2,4 3,8 2,13l0 0c-1,4 -4,8 -8,10 -16,8 -48,20 -89,18l-6 57c0,3 -3,5 -5,5z"/>
  </g>
 </g>
</svg>
