<?xml version="1.0" encoding="UTF-8"?>
<!DOCTYPE svg PUBLIC "-//W3C//DTD SVG 1.0//EN" "http://www.w3.org/TR/2001/REC-SVG-20010904/DTD/svg10.dtd">
<!-- Creator: CorelDRAW X6 -->
<svg xmlns="http://www.w3.org/2000/svg" xml:space="preserve" width="99.3446mm" height="99.3417mm" version="1.0" style="shape-rendering:geometricPrecision; text-rendering:geometricPrecision; image-rendering:optimizeQuality; fill-rule:evenodd; clip-rule:evenodd"
viewBox="0 0 10159 10159"
 xmlns:xlink="http://www.w3.org/1999/xlink">
 <defs>
  <style type="text/css">
   <![CDATA[
    .fil0 {fill:#FFDB00;fill-rule:nonzero}
   ]]>
  </style>
 </defs>
 <g id="Layer_x0020_1">
  <metadata id="CorelCorpID_0Corel-Layer"/>
  <path class="fil0" d="M5080 3367c-472,0 -929,186 -1254,511 -324,324 -511,781 -511,1254 0,472 186,929 511,1254 325,324 782,511 1254,511 472,0 929,-186 1254,-511 324,-324 511,-782 511,-1254 0,-472 -186,-929 -511,-1254 -325,-324 -782,-511 -1254,-511zm0 3999c-596,0 -1174,-236 -1586,-648 -412,-412 -648,-991 -648,-1586 0,-596 236,-1174 648,-1586 412,-412 990,-648 1586,-648 596,0 1174,236 1586,648 412,412 648,990 648,1586 0,596 -236,1174 -648,1586 -412,412 -990,648 -1586,648zm0 -5135c-130,0 -235,-105 -235,-235l0 -1761c0,-130 105,-235 235,-235 130,0 235,105 235,235l0 1761c0,130 -105,235 -235,235zm0 7928c-130,0 -235,-105 -235,-235l0 -1761c0,-130 105,-235 235,-235 130,0 235,105 235,235l0 1761c0,130 -105,235 -235,235zm4844 -4844l-1761 0c-130,0 -235,-105 -235,-235 0,-130 105,-235 235,-235l1761 0c130,0 235,105 235,235 0,130 -105,235 -235,235zm-7928 0l-1761 0c-130,0 -235,-105 -235,-235 0,-130 105,-235 235,-235l1761 0c130,0 235,105 235,235 0,130 -105,235 -235,235zm6509 3425c-60,0 -120,-23 -166,-69l-1245 -1245c-92,-92 -92,-241 0,-333 92,-92 241,-92 333,0l1245 1245c92,92 92,240 0,332 -46,46 -106,69 -166,69zm-5606 -5606c-60,0 -120,-23 -166,-69l-1245 -1245c-92,-92 -92,-241 0,-333 92,-92 240,-92 332,0l1245 1245c92,92 92,240 0,332 -46,46 -106,69 -166,69zm-1245 5606c-60,0 -120,-23 -166,-69 -92,-92 -92,-240 0,-332l1245 -1245c92,-92 240,-92 332,0 92,92 92,241 0,333l-1245 1245c-46,46 -106,69 -166,69zm5606 -5606c-60,0 -120,-23 -166,-69 -92,-92 -92,-240 0,-332l1245 -1245c92,-92 241,-92 333,0 92,92 92,241 0,333l-1245 1245c-46,46 -106,69 -166,69z"/>
 </g>
</svg>
