<?xml version="1.0" encoding="UTF-8"?>
<!DOCTYPE svg PUBLIC "-//W3C//DTD SVG 1.1//EN" "http://www.w3.org/Graphics/SVG/1.1/DTD/svg11.dtd">
<!-- Creator: CorelDRAW X6 -->
<svg xmlns="http://www.w3.org/2000/svg" xml:space="preserve" width="48.0489mm" height="48.0492mm" version="1.1" style="shape-rendering:geometricPrecision; text-rendering:geometricPrecision; image-rendering:optimizeQuality; fill-rule:evenodd; clip-rule:evenodd"
viewBox="0 0 205 205"
 xmlns:xlink="http://www.w3.org/1999/xlink">
 <defs>
  <style type="text/css">
   <![CDATA[
    .fil0 {fill:#322B7C;fill-rule:nonzero}
    .fil1 {fill:#64C7F3;fill-rule:nonzero}
   ]]>
  </style>
 </defs>
 <g id="Layer_x0020_1">
  <metadata id="CorelCorpID_0Corel-Layer"/>
  <g id="_772752400">
   <polygon class="fil0" points="0,205 205,205 205,0 0,0 "/>
   <path class="fil1" d="M98 50c-3,0 -5,1 -7,3 -2,2 -3,4 -3,7l0 20 -4 -15c-1,-3 -2,-5 -5,-6 -2,-1 -3,-1 -5,-1 -6,0 -10,5 -10,10 0,1 0,1 4,17l0 1 -2 -4c-2,-3 -5,-5 -8,-5 -5,0 -9,4 -9,9 0,2 0,3 1,5l9 16c3,6 5,12 5,19 0,1 0,3 0,4 0,1 1,8 4,12 1,2 3,4 5,6l0 0 0 0c5,5 13,8 20,8l6 0c8,0 16,-3 22,-9l30 -32c3,-3 3,-6 2,-9 -1,-3 -4,-5 -8,-5 -5,0 -10,2 -14,6l0 0 0 0 -9 10c0,0 0,0 0,0l0 -8c0,-1 1,-5 4,-14l7 -25c1,-3 0,-6 -2,-9 -2,-3 -5,-4 -8,-4 -5,0 -8,3 -10,7l-5 19 0 -22c0,-6 -5,-10 -10,-10zm0 4c3,0 6,2 6,6l0 43c0,1 1,2 2,2 1,0 1,0 2,-1l11 -39c1,-3 3,-4 5,-4 4,0 6,4 5,7 -11,42 -11,39 -11,40l0 9c0,3 2,5 5,5 1,0 3,0 3,-2l9 -10c3,-3 7,-5 11,-5 3,0 6,4 3,7l-30 32c-5,5 -12,8 -19,8l-6 0c-6,0 -12,-2 -17,-7 0,0 0,0 0,0 0,0 0,0 0,0 -1,-1 -3,-3 -4,-5 -2,-3 -3,-9 -3,-10 0,-1 0,-2 0,-3 0,-7 -2,-15 -6,-21l-9 -16c0,-1 -1,-2 -1,-2 0,-3 2,-5 5,-5 2,0 3,1 4,2l13 22c0,1 1,1 1,1 1,0 2,-1 2,-2 -11,-40 -10,-37 -10,-38 0,-3 3,-6 6,-6 1,0 2,0 3,1 1,1 2,2 3,3l9 35c0,1 1,1 2,1 1,0 2,-1 2,-2l0 -41c0,-2 1,-3 2,-4 1,-1 3,-2 4,-2z"/>
  </g>
 </g>
</svg>
