<?xml version="1.0" encoding="UTF-8"?>
<!DOCTYPE svg PUBLIC "-//W3C//DTD SVG 1.1//EN" "http://www.w3.org/Graphics/SVG/1.1/DTD/svg11.dtd">
<!-- Creator: CorelDRAW X6 -->
<svg xmlns="http://www.w3.org/2000/svg" xml:space="preserve" width="103.744mm" height="96.0977mm" version="1.1" style="shape-rendering:geometricPrecision; text-rendering:geometricPrecision; image-rendering:optimizeQuality; fill-rule:evenodd; clip-rule:evenodd"
viewBox="0 0 1170 1083"
 xmlns:xlink="http://www.w3.org/1999/xlink">
 <defs>
  <style type="text/css">
   <![CDATA[
    .fil0 {fill:#5EB296;fill-rule:nonzero}
    .fil1 {fill:#FFDB00;fill-rule:nonzero}
   ]]>
  </style>
 </defs>
 <g id="Layer_x0020_1">
  <metadata id="CorelCorpID_0Corel-Layer"/>
  <g id="_1038240384">
   <polygon class="fil0" points="0,0 1170,0 1170,1083 0,1083 "/>
   <path class="fil1" d="M585 280c-1,0 -1,0 -2,1l-306 274c-1,1 -1,2 -1,3 0,1 1,2 3,2l100 0 0 241c0,2 1,3 3,3l406 0c2,0 3,-1 3,-3l0 -241 100 0c1,0 2,-1 3,-2 0,-1 0,-2 -1,-3l-306 -274c-1,0 -1,-1 -2,-1zm203 541l-406 0c-11,0 -20,-9 -20,-20l0 -223 -83 0c-8,0 -16,-5 -19,-13 -3,-8 -1,-17 5,-23l306 -274c8,-7 19,-7 27,0l306 274c6,6 8,15 5,23 -3,8 -11,13 -19,13l-83 0 0 223c0,11 -9,20 -20,20zm-248 -351c-2,0 -4,0 -6,0 -18,2 -33,13 -40,30 -7,18 -4,38 8,53l81 99c1,1 3,1 4,0l81 -99c12,-15 15,-35 8,-53 -7,-17 -22,-28 -40,-30 -17,-2 -34,4 -46,16l-6 6 -6 -6c-11,-10 -25,-16 -40,-16zm46 200c-6,0 -12,-3 -16,-7l-81 -99c-16,-20 -20,-47 -11,-71 9,-23 30,-38 54,-41 19,-2 39,4 54,15 15,-11 35,-17 54,-15 24,2 45,18 54,41 10,24 6,51 -11,71l-81 99c-4,5 -10,7 -16,7z"/>
  </g>
 </g>
</svg>
