<?xml version="1.0" encoding="UTF-8"?>
<!DOCTYPE svg PUBLIC "-//W3C//DTD SVG 1.1//EN" "http://www.w3.org/Graphics/SVG/1.1/DTD/svg11.dtd">
<!-- Creator: CorelDRAW X6 -->
<svg xmlns="http://www.w3.org/2000/svg" xml:space="preserve" width="62.9961mm" height="53.5221mm" version="1.1" style="shape-rendering:geometricPrecision; text-rendering:geometricPrecision; image-rendering:optimizeQuality; fill-rule:evenodd; clip-rule:evenodd"
viewBox="0 0 500 425"
 xmlns:xlink="http://www.w3.org/1999/xlink">
 <defs>
  <style type="text/css">
   <![CDATA[
    .fil0 {fill:#A59ECE;fill-rule:nonzero}
    .fil1 {fill:#FFDB00;fill-rule:nonzero}
   ]]>
  </style>
 </defs>
 <g id="Layer_x0020_1">
  <metadata id="CorelCorpID_0Corel-Layer"/>
  <g id="_1038245664">
   <polygon class="fil0" points="0,0 500,0 500,425 0,425 "/>
   <path class="fil1" d="M157 200c-4,0 -9,-1 -13,-4 -14,-8 -14,-26 -14,-27l0 -20c0,-3 3,-6 6,-6 3,0 6,3 6,6l0 20c0,0 0,11 8,16 4,2 8,2 12,0 2,-1 3,-2 4,-4l19 -23c4,-6 14,-16 27,-12 12,3 17,14 16,23l0 22c0,3 -3,6 -6,6l0 0c-3,0 -6,-3 -6,-6l0 -22c0,-3 -1,-9 -7,-10 -7,-2 -14,8 -14,8l-19 24c-2,3 -5,5 -8,7 -4,2 -8,3 -12,3zm97 113c-61,0 -82,-51 -85,-79 0,-3 2,-6 6,-7 3,0 6,2 7,6 3,23 21,68 73,68 52,0 71,-44 75,-68 0,-3 4,-6 7,-5 3,0 6,4 5,7 -4,27 -26,78 -87,78zm43 -113c-4,0 -8,-1 -12,-4 -14,-8 -14,-26 -14,-27l0 -20c0,-3 3,-6 6,-6 3,0 6,3 6,6l0 20c0,0 0,11 8,16 3,2 7,2 11,1 2,-1 5,-3 7,-5l18 -22c4,-5 14,-16 27,-12 12,3 17,14 16,23l0 22c0,3 -3,6 -6,6l0 0c-3,0 -6,-3 -6,-6l0 -22c0,-3 -1,-9 -7,-10 -7,-2 -14,8 -14,8l-18 23c-3,4 -7,7 -12,9 -3,1 -6,2 -9,2z"/>
  </g>
 </g>
</svg>
