<?xml version="1.0" encoding="UTF-8"?>
<!DOCTYPE svg PUBLIC "-//W3C//DTD SVG 1.0//EN" "http://www.w3.org/TR/2001/REC-SVG-20010904/DTD/svg10.dtd">
<!-- Creator: CorelDRAW X6 -->
<svg xmlns="http://www.w3.org/2000/svg" xml:space="preserve" width="82.2154mm" height="77.5149mm" version="1.0" style="shape-rendering:geometricPrecision; text-rendering:geometricPrecision; image-rendering:optimizeQuality; fill-rule:evenodd; clip-rule:evenodd"
viewBox="0 0 6946 6548"
 xmlns:xlink="http://www.w3.org/1999/xlink">
 <defs>
  <style type="text/css">
   <![CDATA[
    .fil0 {fill:#64C7F3;fill-rule:nonzero}
   ]]>
  </style>
 </defs>
 <g id="Layer_x0020_1">
  <metadata id="CorelCorpID_0Corel-Layer"/>
  <path class="fil0" d="M2151 588c-862,0 -1563,685 -1563,1526 0,345 124,687 349,961 54,63 1715,1918 2537,2836l2548 -2855c213,-260 334,-599 334,-943 0,-842 -701,-1526 -1563,-1526 -424,0 -819,162 -1114,455l-207 207 -208 -207c-295,-294 -690,-455 -1114,-455zm1324 5960c-140,0 -274,-60 -368,-165 -434,-484 -2592,-2894 -2625,-2936 -311,-379 -482,-853 -482,-1334 0,-1166 965,-2115 2151,-2115 487,0 947,156 1322,445 374,-289 835,-445 1321,-445 1186,0 2151,949 2151,2115 0,480 -169,950 -476,1325l-2627 2944c-93,105 -227,165 -367,165z"/>
 </g>
</svg>
