<?xml version="1.0" encoding="UTF-8"?>
<!DOCTYPE svg PUBLIC "-//W3C//DTD SVG 1.1//EN" "http://www.w3.org/Graphics/SVG/1.1/DTD/svg11.dtd">
<!-- Creator: CorelDRAW X6 -->
<svg xmlns="http://www.w3.org/2000/svg" xml:space="preserve" width="44.0481mm" height="53.5221mm" version="1.1" style="shape-rendering:geometricPrecision; text-rendering:geometricPrecision; image-rendering:optimizeQuality; fill-rule:evenodd; clip-rule:evenodd"
viewBox="0 0 264 320"
 xmlns:xlink="http://www.w3.org/1999/xlink">
 <defs>
  <style type="text/css">
   <![CDATA[
    .fil1 {fill:#64C7F3;fill-rule:nonzero}
    .fil0 {fill:#EF89AD;fill-rule:nonzero}
   ]]>
  </style>
 </defs>
 <g id="Layer_x0020_1">
  <metadata id="CorelCorpID_0Corel-Layer"/>
  <g id="_1038245248">
   <polygon class="fil0" points="0,0 264,0 264,320 0,320 "/>
   <path class="fil1" d="M132 82c-43,0 -78,35 -78,78 0,21 8,41 23,55 15,15 34,23 55,23 21,0 41,-8 55,-23 31,-31 31,-80 0,-111 -15,-15 -35,-23 -55,-23l0 0 0 0zm0 163c-23,0 -44,-9 -60,-25 -16,-16 -25,-37 -25,-60 0,-47 38,-85 85,-85l0 0c22,0 44,9 60,25 33,33 33,87 0,120 -16,16 -37,25 -60,25zm0 -63c0,0 0,0 0,0l0 0zm0 3c0,0 0,0 0,0l0 0zm-25 36l0 0m1 6l-3 -3 -3 -16c0,-2 -1,-3 -2,-5l-9 -12c-1,-1 -2,-3 -2,-4l-3 -11c-1,-2 -2,-3 -6,-4l-2 -1c-2,0 -3,-1 -4,-2l-6 -5c-1,-1 -2,-2 -3,-3 -2,-4 -7,-6 -12,-6l-1 -6c7,-1 15,2 18,9 0,1 1,1 1,2l6 5c0,0 1,1 2,1l2 0c4,1 9,2 11,8l3 11c0,1 1,1 1,2l9 12c2,2 3,5 3,8l1 5c1,-1 1,-2 2,-3l3 -3 3 -9c1,-4 3,-7 6,-9l7 -5 -4 -5c0,0 -1,-1 -1,-2l-4 -6c-1,-2 -4,-3 -6,-3 -1,0 -3,0 -4,-1l-9 -5c-1,-1 -2,-1 -3,0l-5 2c-6,3 -15,1 -19,-5l-4 -7c-3,-5 -3,-11 0,-16 3,-5 9,-8 15,-7l7 1c0,0 1,0 1,0 3,-5 9,-8 15,-8l3 0c0,0 1,0 1,0l3 -3c1,-1 1,-3 0,-4l-6 -8c-2,-2 -4,-4 -6,-6 -1,-1 -2,-1 -3,-2l-10 -7 4 -5 10 7c1,1 2,1 2,2 3,2 6,5 8,8l6 8c2,4 2,8 0,12l-3 3c-2,2 -4,3 -6,3l-3 0c-4,-1 -7,1 -9,5 -2,2 -4,4 -7,3l-7 -1c-4,0 -7,1 -9,4 -2,3 -2,6 0,9l4 7c2,3 7,5 10,3l5 -2c3,-2 7,-1 9,0l9 5c5,0 9,2 12,6l4 6c0,0 1,1 1,1l6 7c1,1 1,2 1,3 0,1 -1,2 -2,3l-8 6c-2,2 -4,4 -4,6l-3 9c0,1 -1,2 -1,2l-3 3c-2,2 -3,5 -3,8 0,2 -1,4 -3,5l-2 1zm67 -36l0 0 0 0 0 0zm0 6c-2,0 -5,-2 -5,-4l0 -3c0,-4 -2,-7 -6,-9 -2,-1 -3,-3 -3,-5l0 -3c0,-2 1,-4 2,-6l14 -13c4,-3 5,-9 4,-14 -2,-5 -6,-9 -11,-9l-1 0c-2,0 -4,-1 -5,-3 -1,-2 -2,-4 -1,-6l3 -5c4,-6 8,-12 13,-18l2 -3 5 4 -2 3c-5,6 -9,11 -13,17l-2 4c0,0 0,0 1,0l1 0c8,1 14,6 16,14 2,7 0,15 -6,20l-14 13c0,0 0,1 0,1l0 3c5,3 8,8 8,14l0 2 7 0 0 0c2,0 4,-1 5,-3l1 -1c3,-6 9,-11 16,-11l3 0 1 6 -4 0c-5,0 -9,3 -11,8l-1 1c-2,4 -6,7 -11,7l0 0 -8 0c0,0 0,0 0,0z"/>
  </g>
 </g>
</svg>
