<?xml version="1.0" encoding="UTF-8"?>
<!DOCTYPE svg PUBLIC "-//W3C//DTD SVG 1.1//EN" "http://www.w3.org/Graphics/SVG/1.1/DTD/svg11.dtd">
<!-- Creator: CorelDRAW X6 -->
<svg xmlns="http://www.w3.org/2000/svg" xml:space="preserve" width="108.81mm" height="54.6409mm" version="1.1" style="shape-rendering:geometricPrecision; text-rendering:geometricPrecision; image-rendering:optimizeQuality; fill-rule:evenodd; clip-rule:evenodd"
viewBox="0 0 4169 2094"
 xmlns:xlink="http://www.w3.org/1999/xlink">
 <defs>
  <style type="text/css">
   <![CDATA[
    .fil1 {fill:#FDC300;fill-rule:nonzero}
    .fil0 {fill:white;fill-rule:nonzero}
   ]]>
  </style>
 </defs>
 <g id="Layer_x0020_1">
  <metadata id="CorelCorpID_0Corel-Layer"/>
  <g id="_1038242496">
   <path class="fil0" d="M2810 1305c-34,17 -116,37 -220,37 -298,0 -451,-186 -451,-432 0,-294 209,-456 470,-456 101,0 178,19 212,38l-41 153c-38,-17 -93,-32 -164,-32 -153,0 -273,93 -273,285 0,172 102,281 275,281 60,0 124,-11 163,-28l28 153zm1285 141l0 20c0,9 -1,18 -4,27 -2,6 -5,12 -8,17l-8 0 1 44 19 0 1 -26 52 0 1 26 19 0 1 -44 -9 0 0 -64 -65 0zm22 19l18 0 0 45 -27 0c3,-4 5,-9 6,-14 2,-7 3,-14 3,-21l0 -10zm-130 -19l0 82 25 0 0 -32 26 0 0 32 26 0 0 -82 -26 0 0 30 -26 0 0 -30 -25 0zm-57 -2c-26,0 -44,17 -44,43 0,26 18,42 42,42 22,0 43,-14 43,-44 0,-25 -17,-42 -42,-42zm-1 18c12,0 16,12 16,25 0,15 -6,25 -16,25 -11,0 -17,-11 -17,-25 0,-12 5,-25 17,-25zm-120 -53l0 36c-23,2 -43,16 -43,43 0,26 20,40 43,42l0 32 23 0 0 -32c23,-2 43,-15 43,-42 0,-26 -20,-40 -43,-42l0 -36 -23 0zm0 103c-12,-3 -18,-13 -18,-26 0,-13 6,-23 18,-26l0 51zm23 -51c12,3 18,13 18,26 0,13 -6,23 -18,26l0 -51zm-195 -15l0 82 31 0c6,-13 12,-27 17,-38 3,-8 5,-13 9,-22l1 0c-1,17 -1,23 -1,35l0 25 24 0 0 -82 -31 0 -16 35c-3,8 -5,14 -9,23l-1 0c1,-11 1,-20 1,-33l0 -25 -24 0zm16 -34c1,14 8,24 24,24 14,0 24,-8 25,-24l-16 0c0,7 -3,12 -8,12 -5,0 -8,-5 -8,-12l-16 0zm-145 34l0 81c9,1 18,1 27,1 12,0 26,-2 37,-9 7,-5 11,-11 11,-22 0,-21 -19,-29 -37,-29 -6,0 -10,1 -13,1l0 -24 -25 0zm25 41c2,0 5,-1 9,-1 8,0 16,3 16,12 0,10 -9,13 -17,13 -3,0 -5,0 -8,0l0 -24zm59 -41l0 82 25 0 0 -82 -25 0zm-181 0l0 82 25 0 0 -32 26 0 0 32 26 0 0 -82 -26 0 0 30 -26 0 0 -30 -25 0zm-92 0l0 81c9,1 18,1 27,1 13,0 28,-2 39,-9 7,-5 11,-12 11,-22 0,-22 -20,-28 -39,-28 -5,0 -9,1 -13,1l0 -24 -25 0zm25 41c3,0 5,-1 8,-1 8,0 19,2 19,12 0,10 -10,13 -18,13 -4,0 -6,0 -9,-1l0 -24zm-112 -41l0 33c0,14 -1,22 -5,26 -2,2 -5,4 -9,5l3 20c11,0 19,-2 24,-8 9,-7 12,-21 12,-41l0 -15 18 0 0 62 25 0 0 -82 -67 0zm-24 49c0,-2 1,-6 1,-10 0,-20 -10,-41 -36,-41 -28,0 -41,23 -41,44 0,26 16,42 44,42 11,0 21,-2 30,-5l-3 -17c-7,2 -14,3 -23,3 -12,0 -22,-5 -23,-16l53 0zm-53 -17c1,-7 5,-17 16,-17 12,0 14,10 14,17l-30 0zm-100 -32l0 19 24 0 0 62 26 0 0 -62 24 0 0 -19 -73 0zm-91 0l0 82 31 0c6,-13 12,-27 17,-38 3,-8 5,-13 9,-22l1 0c-1,17 -1,23 -1,35l0 25 24 0 0 -82 -31 0 -16 35c-3,8 -5,14 -9,23l-1 0c1,-11 1,-20 1,-33l0 -25 -24 0zm-100 115l25 0 0 -41 0 0c4,5 11,9 21,9 18,0 37,-14 37,-44 0,-26 -16,-42 -34,-42 -12,0 -21,4 -27,13l0 0 -1 -11 -22 0c0,8 1,17 1,27l0 87zm25 -79c0,-2 0,-3 1,-5 2,-8 8,-13 15,-13 11,0 17,10 17,23 0,14 -7,23 -18,23 -7,0 -13,-5 -15,-12 0,-2 -1,-3 -1,-5l0 -11zm-83 -37c-26,0 -44,17 -44,43 0,26 18,42 42,42 22,0 43,-14 43,-44 0,-25 -17,-42 -42,-42zm-1 18c12,0 16,12 16,25 0,15 -6,25 -16,25 -11,0 -17,-11 -17,-25 0,-12 5,-25 17,-25zm-130 65c5,1 17,1 29,1 17,0 48,-2 48,-25 0,-11 -8,-18 -20,-20l0 0c8,-2 17,-7 17,-18 0,-19 -27,-21 -40,-21 -13,0 -27,1 -33,2l0 80zm25 -66c3,0 5,-1 9,-1 10,0 15,3 15,9 0,6 -7,9 -17,9l-6 0 0 -17zm0 32l7 0c12,0 19,3 19,10 0,8 -9,11 -17,11 -4,0 -6,0 -9,0l0 -21zm-111 -47l0 19 24 0 0 62 26 0 0 -62 24 0 0 -19 -73 0zm-44 -2c-26,0 -44,17 -44,43 0,26 18,42 42,42 22,0 43,-14 43,-44 0,-25 -17,-42 -42,-42zm-1 18c12,0 16,12 16,25 0,15 -6,25 -16,25 -11,0 -17,-11 -17,-25 0,-12 5,-25 17,-25zm-105 -16l0 82 25 0 0 -62 32 0 0 -20 -57 0zm-19 82c-1,-5 -1,-12 -1,-20l0 -28c0,-19 -9,-35 -36,-35 -15,0 -26,4 -32,7l5 16c5,-3 14,-6 23,-6 13,0 15,6 15,11l0 1c-29,0 -48,10 -48,31 0,13 10,25 26,25 10,0 18,-3 23,-10l1 0 1 8 23 0zm-26 -30c0,1 0,3 -1,4 -2,5 -7,9 -13,9 -6,0 -10,-3 -10,-10 0,-10 10,-13 24,-13l0 9zm-130 -52l0 33c0,14 -1,22 -5,26 -2,2 -5,4 -9,5l3 20c11,0 19,-2 24,-8 9,-7 12,-21 12,-41l0 -15 18 0 0 62 25 0 0 -82 -67 0zm-104 -31l0 112c6,1 15,2 27,2 17,0 35,-3 46,-13 7,-6 11,-14 11,-25 0,-12 -5,-21 -13,-27 -9,-6 -20,-9 -32,-9 -5,0 -10,0 -14,1l0 -19 49 0 0 -21 -75 0zm25 59c3,0 6,-1 9,-1 6,0 12,2 17,5 4,3 6,7 6,13 0,6 -2,10 -6,13 -4,4 -10,6 -17,6 -4,0 -7,0 -10,-1l0 -35zm1234 -554c46,59 62,114 62,183 0,116 -72,194 -221,229 -184,44 -382,-106 -382,-106 0,0 66,-157 68,-161 3,-4 54,51 182,75 63,12 110,16 111,4 1,-15 -67,-27 -67,-27 0,0 115,27 116,7 1,-17 -42,-19 -102,-37 -9,-3 57,11 80,14 37,4 48,0 47,-9 -2,-15 -130,-40 -126,-40 4,0 140,30 143,3 2,-22 -42,-20 -70,-24 -105,-15 -134,-39 -134,-39 0,0 37,5 71,-13 28,-15 39,-38 1,-29 -77,20 -177,-30 -194,-41 -115,-69 -102,-218 -102,-222 0,-116 69,-207 221,-229 198,-28 351,102 351,102 0,0 -34,162 -37,165 -3,4 -54,-51 -182,-75 -63,-12 -110,-16 -111,-4 -1,15 67,27 67,27 0,0 -115,-27 -116,-7 -1,17 42,19 102,37 9,3 -57,-11 -80,-14 -37,-4 -48,0 -47,9 2,15 130,40 126,40 -4,0 -140,-30 -143,-3 -2,22 42,20 70,24 105,15 134,39 134,39 0,0 -37,-5 -71,13 -28,15 -39,36 -1,29 111,-20 203,40 233,80zm187 207c51,27 133,54 216,54 89,0 137,-37 137,-93 0,-54 -41,-84 -144,-120 -143,-51 -238,-130 -238,-255 0,-147 124,-258 326,-258 98,0 169,19 220,43l-43 156c-33,-17 -96,-41 -179,-41 -84,0 -125,40 -125,83 0,55 47,79 160,121 152,56 222,135 222,257 0,144 -110,267 -346,267 -98,0 -195,-27 -244,-54l40 -160z"/>
   <path class="fil1" d="M1363 964l0 -85c0,0 1,-20 -17,-25 -18,-5 -37,22 -37,22l-51 63c-9,11 -21,21 -35,26 -16,6 -39,9 -63,-6 -41,-24 -40,-77 -40,-77l0 -76 60 0 1 75c0,0 -1,29 12,29 13,0 19,-3 35,-23 16,-20 57,-70 57,-70 0,0 21,-22 56,-22 34,0 79,22 79,73 0,51 1,97 1,97l-57 0zm318 -111c1,3 3,5 6,5 1,0 1,0 2,0l362 -109c3,-1 5,-5 4,-8 -1,-3 -5,-5 -8,-4l-362 109c-3,1 -5,5 -4,8zm-77 -167c1,2 3,3 6,3 1,0 2,0 4,-1l318 -204c3,-2 4,-6 2,-9 -2,-3 -6,-4 -9,-2l-318 204c-3,2 -4,6 -2,9zm-120 -139c1,1 3,2 4,2 2,0 4,-1 5,-2l249 -284c2,-3 2,-7 -1,-9 -3,-2 -7,-2 -9,1l-249 284c-2,3 -2,7 1,9zm-154 -101c1,0 2,1 3,1 2,0 5,-1 6,-4l161 -342c2,-3 0,-7 -3,-9 -3,-2 -7,0 -9,3l-161 342c-2,3 0,7 3,9zm-175 -54c0,0 1,0 1,0 3,0 6,-2 7,-6l61 -373c1,-4 -2,-7 -5,-8 -4,-1 -7,2 -8,5l-61 373c-1,4 2,7 5,8zm-184 -4c0,0 1,0 1,0 4,0 6,-4 6,-7l-44 -375c0,-3 -3,-6 -6,-6l0 0c0,0 0,0 -1,0 -4,0 -6,4 -6,7l44 375c0,3 3,6 7,6zm-185 43c1,3 4,4 6,4 1,0 2,0 3,-1 3,-1 5,-5 4,-9l-146 -349c-1,-3 -5,-5 -9,-4 -3,1 -5,5 -4,9l146 348zm-159 96c1,2 3,2 5,2 1,0 3,0 4,-1 3,-2 3,-6 1,-9l-237 -295c-2,-3 -6,-3 -9,-1 -3,2 -3,6 -1,9l237 295zm-126 136c1,1 2,1 4,1 2,0 4,-1 5,-3 2,-3 1,-7 -2,-9l-309 -218c-3,-2 -7,-1 -9,2 -2,3 -1,7 2,9l309 218zm-440 41l357 125c1,0 1,0 2,0 3,0 5,-2 6,-4 1,-3 -1,-7 -4,-8l-357 -125c-3,-1 -7,1 -8,4 -1,3 1,7 4,8zm323 307c3,0 6,-3 7,-6 0,-4 -3,-7 -6,-7l-377 -21c-4,0 -7,3 -7,6l0 0 0 0c0,3 3,6 6,6l377 21c0,0 0,0 0,0zm22 177c-1,-4 -4,-6 -8,-5l-369 83c-4,1 -6,4 -5,8 1,3 3,5 6,5 0,0 1,0 1,0l369 -83c4,-1 6,-4 5,-8zm65 172c-2,-3 -6,-4 -9,-3l-331 182c-3,2 -4,6 -3,9 1,2 3,3 6,3 1,0 2,0 3,-1l331 -182c3,-2 4,-6 3,-9zm110 147c-3,-3 -7,-3 -9,0l-268 266c-3,3 -3,7 0,9 1,1 3,2 5,2 2,0 3,-1 5,-2l268 -266c3,-3 3,-7 0,-9zm146 111c-3,-2 -7,-1 -9,3l-185 330c-2,3 -1,7 3,9 1,1 2,1 3,1 2,0 5,-1 6,-3l185 -330c2,-3 1,-7 -3,-9zm171 67c-4,-1 -7,1 -8,5l-87 368c-1,4 1,7 5,8 1,0 1,0 2,0 3,0 6,-2 6,-5l87 -368c1,-4 -1,-7 -5,-8zm183 17c-4,0 -6,3 -6,7l18 377c0,4 3,6 7,6 0,0 0,0 0,0 4,0 6,-3 6,-7l-18 -377c0,-4 -3,-6 -7,-6zm189 -30c-1,-3 -5,-5 -8,-4 -3,1 -5,5 -4,8l121 358c1,3 3,4 6,4 1,0 1,0 2,0 3,-1 5,-5 4,-8l-121 -358zm165 -85c-2,-3 -6,-4 -9,-2 -3,2 -4,6 -2,9l215 311c1,2 3,3 5,3 1,0 3,0 4,-1 3,-2 4,-6 2,-9l-215 -311zm135 -127c-3,-2 -7,-2 -9,1 -2,3 -2,7 1,9l293 239c1,1 3,1 4,1 2,0 4,-1 5,-2 2,-3 2,-7 -1,-9l-293 -239zm442 -10l-347 -149c-3,-1 -7,0 -9,3 -1,3 0,7 3,9l347 149c1,0 2,1 3,1 3,0 5,-2 6,-4 1,-3 0,-7 -3,-9zm75 -281l-375 -48c-4,0 -7,2 -7,6 0,4 2,7 6,7l375 48c0,0 1,0 1,0 3,0 6,-2 7,-6 0,-4 -2,-7 -6,-7zm-127 -266c-1,-4 -4,-6 -8,-6l-216 33c-4,1 -6,4 -6,8 1,3 3,6 7,6 0,0 1,0 1,0l216 -33c4,-1 6,-4 6,-8zm-78 -238c3,-2 5,-5 3,-9 -2,-3 -5,-5 -9,-3l-198 92c-3,2 -5,5 -3,9 1,2 3,4 6,4 1,0 2,0 3,-1l198 -92zm-145 -226l-165 143c-3,2 -3,7 -1,9 1,2 3,2 5,2 2,0 3,-1 4,-2l165 -143c3,-2 3,-7 1,-9 -2,-3 -7,-3 -9,-1zm-311 25c1,1 2,1 4,1 2,0 4,-1 6,-3l119 -184c2,-3 1,-7 -2,-9 -3,-2 -7,-1 -9,2l-119 184c-2,3 -1,7 2,9zm-174 -82c1,0 1,0 2,0 3,0 5,-2 6,-5l64 -210c1,-3 -1,-7 -4,-8 -3,-1 -7,1 -8,4l-64 210c-1,3 1,7 4,8zm-190 -31l0 0c4,0 7,-3 7,-6l4 -219c0,-4 -3,-7 -6,-7 -4,0 -7,3 -7,6l-4 219c0,4 3,7 6,7zm-199 18c1,3 3,5 6,5 1,0 1,0 2,0 4,-1 6,-5 5,-8l-56 -212c-1,-4 -5,-6 -8,-5 -4,1 -6,5 -5,8l56 212zm-178 77c1,2 3,3 6,3 1,0 2,0 3,-1 3,-2 4,-6 2,-9l-112 -189c-2,-3 -6,-4 -9,-2 -3,2 -4,6 -2,9l112 189zm-150 123c1,1 3,2 5,2 2,0 3,-1 5,-2 2,-3 2,-7 0,-9l-159 -150c-3,-2 -7,-2 -9,0 -2,3 -2,7 0,9l159 150zm-298 48c-3,-2 -7,0 -9,3 -2,3 0,7 3,9l194 101c1,1 2,1 3,1 2,0 5,-1 6,-4 2,-3 0,-7 -3,-9l-194 -101zm-85 241c-4,-1 -7,2 -8,5 -1,4 2,7 5,8l214 43c0,0 1,0 1,0 3,0 6,-2 6,-5 1,-4 -2,-7 -5,-8l-214 -43zm-16 256c-4,0 -6,3 -6,7 0,3 3,6 7,6 0,0 0,0 1,0l218 -18c4,0 6,-3 6,-7 0,-4 -3,-6 -7,-6l-218 18zm259 173l-204 78c-3,1 -5,5 -4,8 1,3 4,4 6,4 1,0 2,0 2,0l204 -78c3,-1 5,-5 4,-9 -1,-3 -5,-5 -9,-4zm-84 312c1,2 3,3 5,3 1,0 3,0 4,-1l175 -131c3,-2 4,-6 1,-9 -2,-3 -6,-4 -9,-1l-175 131c-3,2 -4,6 -1,9zm321 -2c-3,-2 -7,-2 -9,1l-132 175c-2,3 -2,7 1,9 1,1 3,1 4,1 2,0 4,-1 5,-3l132 -175c2,-3 2,-7 -1,-9zm168 94c-3,-1 -7,0 -9,4l-79 205c-1,3 0,7 4,9 1,0 2,0 2,0 3,0 5,-2 6,-4l79 -205c1,-3 0,-7 -4,-9zm187 44c-4,0 -7,2 -7,6l-20 219c0,4 2,7 6,7 0,0 0,0 1,0 3,0 6,-3 7,-6l20 -219c0,-4 -2,-7 -6,-7zm192 -9c-4,1 -6,4 -5,8l41 216c1,3 3,5 6,5 0,0 1,0 1,0 4,-1 6,-4 5,-8l-41 -216c-1,-4 -4,-6 -8,-5zm191 -59c-2,-3 -6,-5 -9,-3 -3,2 -5,6 -3,9l99 196c1,2 3,4 6,4 1,0 2,0 3,-1 3,-2 5,-6 3,-9l-99 -196zm158 -113c-2,-3 -7,-3 -9,0 -3,2 -3,7 0,9l148 161c1,1 3,2 5,2 2,0 3,-1 4,-2 3,-2 3,-7 0,-9l-148 -161zm112 -150c-2,3 -1,7 2,9l187 114c1,1 2,1 3,1 2,0 4,-1 6,-3 2,-3 1,-7 -2,-9l-187 -114c-3,-2 -7,-1 -9,2zm291 -112c1,0 1,0 2,0 3,0 6,-2 6,-5 1,-3 -1,-7 -5,-8l-211 -58c-4,-1 -7,1 -8,5 -1,4 1,7 5,8l211 58zm-185 -251l0 0 218 -3c4,0 7,-3 7,-7 0,-4 -3,-7 -7,-7l0 0 -218 3c-4,0 -7,3 -7,7 0,4 3,7 7,7zm-423 48c-11,83 -81,241 -267,241 -186,0 -252,-158 -261,-242 -2,-16 10,-30 26,-32 16,-2 30,10 32,26 1,8 24,190 203,190 181,0 208,-183 209,-191 2,-16 17,-27 33,-25 16,2 27,17 25,32zm-591 -130c-41,-24 -40,-77 -40,-77l0 -76 60 0 1 75c0,0 -1,29 12,29 13,0 19,-3 35,-23 16,-20 57,-70 57,-70 0,0 21,-22 56,-22 34,0 79,22 79,73 0,51 1,97 1,97l-57 0 0 -85c0,0 1,-20 -17,-25 -18,-5 -37,22 -37,22l-53 65c-7,8 -15,15 -25,20 -17,8 -43,15 -71,-2zm920 84c0,-329 -266,-595 -595,-595 -329,0 -595,266 -595,595 0,329 266,595 595,595 329,0 595,-266 595,-595z"/>
  </g>
 </g>
</svg>
